<?xml version="1.0" encoding="UTF-8" standalone="no"?>
<!-- Created with Inkscape (http://www.inkscape.org/) -->

<svg
   width="156.69501mm"
   height="154.0941mm"
   viewBox="0 0 156.69501 154.0941"
   version="1.1"
   id="svg1"
   xml:space="preserve"
   xmlns="http://www.w3.org/2000/svg"
   xmlns:svg="http://www.w3.org/2000/svg"><defs
     id="defs1"><pattern
       id="EMFhbasepattern"
       patternUnits="userSpaceOnUse"
       width="6"
       height="6"
       x="0"
       y="0" /><pattern
       id="EMFhbasepattern-1"
       patternUnits="userSpaceOnUse"
       width="6"
       height="6"
       x="0"
       y="0" /></defs><g
     id="logo-face"
     transform="translate(115.54615,-287.75218)"><path
       class="logo-face"
       d="m -26.114506,441.72363 c -2.67228,-0.59626 -6.44348,-2.49615 -10.31199,-5.19507 l -1.08223,-0.75504 -1.53076,0.71434 c -4.73248,2.20849 -8.6188,3.54332 -11.9827,4.1157 l -1.09577,0.18644 -1.55936,0.006 -1.55937,0.006 -0.71646,-0.15387 -0.71647,-0.15388 -0.67432,-0.32045 c -2.53698,-1.20566 -5.65371,-4.71883 -8.61655,-9.71257 l -0.58417,-0.98459 -4.16579,-0.0385 -4.16579,-0.0385 -1.26435,-0.13797 c -3.94144,-0.4301 -6.66889,-1.17226 -8.67596,-2.36078 -0.92361,-0.54693 -1.39364,-0.96121 -1.99293,-1.75652 l -0.51395,-0.68207 -0.49325,-1.0178 c -1.17412,-2.42274 -2.0987,-6.21471 -2.54121,-10.42223 l -0.1054,-1.00216 -1.18336,-0.47322 c -7.09585,-2.83761 -11.993194,-5.88905 -14.261704,-8.88617 -0.92748,-1.22537 -1.2764,-2.13652 -1.46869,-3.8352 l -0.0954,-0.84289 0.0555,-1.05363 c 0.14021,-2.66082 0.71869,-5.46894 1.91501,-9.29616 l 0.33693,-1.0779 -0.65999,-0.70729 c -3.08345,-3.30445 -3.95511,-4.30399 -5.33159,-6.1138 -2.34912,-3.08863 -3.77455,-5.81831 -4.2614,-8.16056 l -0.12817,-0.61661 5.9e-4,-0.85846 5.9e-4,-0.85846 0.16348,-0.68184 c 0.5899,-2.46042 2.60316,-5.72655 5.84048,-9.4751 0.58054,-0.67221 1.16839,-1.32848 1.30634,-1.45837 l 0.25081,-0.23617 -0.40758,-1.09694 c -0.5852,-1.57497 -1.34764,-3.94354 -1.78759,-5.55323 -1.36913,-5.00935 -1.66488,-8.65546 -0.93574,-11.53638 l 0.19979,-0.78941 0.30414,-0.55331 c 1.40839,-2.56225 5.31742,-5.31177 11.353724,-7.98593 l 0.73754,-0.32674 v -0.38726 c 0,-1.21987 0.53787,-5.80848 0.9336,-7.96459 0.82447,-4.49205 2.34021,-8.17008 4.10608,-9.96357 l 0.49008,-0.49775 0.62779,-0.39103 c 1.66672,-1.03813 4.44262,-1.76958 8.08745,-2.13104 l 1.30649,-0.12956 2.23799,-0.0515 2.23799,-0.0515 0.67001,-1.22583 c 4.41521,-8.07787 8.85113,-12.97531 12.48725,-13.78642 l 0.60667,-0.13534 1.20556,2e-5 1.20557,2e-5 1.05362,0.17091 c 2.51426,0.40784 6.56625,1.70693 9.69938,3.10968 l 0.35293,0.15801 1.36152,-1.02393 c 5.23814,-3.9393 9.45324,-6.26159 12.96602,-7.14358 l 1.03357,-0.2595 1.26591,-0.0452 1.26591,-0.0452 0.71491,0.18335 0.7149,0.18335 1.01148,0.48964 c 2.3897,1.15681 5.21362,3.43428 8.26647,6.66684 0.634841,0.67221 1.196629,1.21762 1.248418,1.21202 0.05179,-0.006 0.928633,-0.20305 1.948541,-0.43879 2.899188,-0.6701 5.09219,-1.0532 7.62824,-1.3326 l 1.306494,-0.14393 2.0651039,3.9e-4 2.065104,4e-4 0.926754,0.14137 c 0.509715,0.0778 1.28729,0.23823 1.727944,0.35662 l 0.801189,0.21525 0.75861,0.3704 0.758609,0.37041 0.52836396,0.45392 c 0.755903,0.6494 1.449028,1.46917 2.22226004,2.6283 l 0.673782,1.01004 0.780342,1.5608 c 0.829505,1.65914 1.724066,3.83085 2.384945,5.78991 l 0.403016,1.19467 0.802433,0.1413 c 6.9125641,1.21724 11.9429321,2.86494 15.0895781,4.94261 l 0.800755,0.52872 0.84792,0.84569 0.84792,0.84568 0.392139,0.80076 c 0.691202,1.41145 1.073951,3.16524 1.250889,5.73171 l 0.09588,1.39079 -0.05396,1.6858 c -0.05053,1.57846 -0.253896,4.41535 -0.345094,4.81384 l -0.04071,0.17789 0.736192,0.48798 c 0.404906,0.26839 1.248253,0.84966 1.874106,1.29171 6.239942,4.40737 9.730243,8.08398 10.935753,11.51949 l 0.207039,0.59003 0.04491,1.02345 0.04491,1.02344 -0.101141,0.7045 c -0.373919,2.60456 -1.813901,6.19408 -4.082809,10.17743 -0.353449,0.62053 -0.642635,1.13956 -0.642635,1.15342 0,0.0139 0.328853,0.54923 0.730785,1.18974 3.336213,5.31651 5.417393,9.99978 5.967547,13.42875 l 0.128476,0.80075 3.39e-4,1.18765 3.39e-4,1.18765 -0.165642,0.64765 -0.165641,0.64765 -0.396373,0.76745 c -1.225278,2.37237 -3.817238,5.02715 -7.896699,8.0881 -0.733301,0.55022 -1.391786,1.03314 -1.4633,1.07317 l -0.130026,0.0728 0.177671,1.29794 c 0.09772,0.71386 0.256793,2.03758 0.353496,2.94159 l 0.175823,1.64365 0.04603,2.80002 0.04603,2.80002 -0.100775,1.07732 c -0.252358,2.69776 -0.81827,4.78476 -1.709211,6.30329 l -0.346176,0.59003 -0.597572,0.59186 c -1.952936,1.93425 -5.880962,3.58789 -11.583387,4.87643 l -1.545342,0.34919 -0.539654,1.7848 c -2.247171,7.43207 -4.869717,12.39042 -7.7808291,14.71093 -0.98073,0.78176 -1.870594,1.16488 -3.423863,1.47411 l -0.75861,0.15103 -2.36011804,-0.003 -2.36011896,-0.003 -1.264349,-0.15142 c -1.215978,-0.14562 -4.178835,-0.62169 -5.222527,-0.83915 l -0.502291,-0.10465 -0.504371,0.59279 c -3.4408019,4.04399 -6.8065319,7.22585 -9.6154049,9.09011 l -1.013395,0.67259 -1.095769,0.5321 c -0.602673,0.29265 -1.437144,0.63498 -1.854379,0.76073 l -0.758609,0.22863 -1.180062,0.0231 -1.18006,0.0231 z m 2.78326,-2.56867 c 1.62443,-0.44201 3.995381,-1.94603 6.488633,-4.1161 0.845172,-0.73561 3.133931,-2.98854 3.989641,-3.92718 l 0.688451,-0.75517 -1.01148,0.91335 c -3.868548,3.49326 -7.584783,6.07271 -9.839402,6.82956 l -0.642273,0.21561 h -0.59209 c -0.62952,0 -1.4121,-0.13422 -1.48674,-0.25498 l -0.045,-0.0728 1.28749,-0.86784 c 2.467572,-1.66329 4.851013,-3.54641 7.37743,-5.8288 0.660623,-0.59682 1.201132,-1.10097 1.201132,-1.12034 0,-0.0194 -0.331892,0.22547 -0.737537,0.54409 -3.23263,2.53909 -6.57114,4.75353 -9.480345,6.28834 l -1.07242,0.56578 -0.77589,-0.3664 -0.7759,-0.36639 1.51116,-1.04378 c 2.10181,-1.45177 4.442627,-3.21065 6.332668,-4.75835 1.682257,-1.37756 2.214644,-1.87626 1.289506,-1.20793 -1.139455,0.82317 -4.307094,2.93115 -5.563134,3.70212 -1.39341,0.85529 -4.10636,2.42814 -4.48461,2.59999 l -0.22797,0.10357 -0.72002,-0.41216 c -0.39601,-0.22669 -0.72014,-0.43711 -0.72029,-0.46761 -1.5e-4,-0.0305 0.86159,-0.65634 1.91498,-1.39078 1.0534,-0.73444 2.53496,-1.80055 3.29237,-2.36914 1.44189,-1.08244 3.895686,-3.03322 3.895686,-3.0971 0,-0.0204 -0.85588,0.52981 -1.901956,1.2228 -2.70709,1.79336 -8.17691,5.03652 -8.36444,4.95944 -0.26571,-0.1092 -1.28051,-0.80021 -1.27709,-0.86961 0.002,-0.0473 0.59712,-0.5032 1.32175,-1.01316 2.34886,-1.65299 7.1873,-5.34844 7.1873,-5.48943 0,-0.0192 -0.44568,0.2636 -0.99041,0.62842 -1.93518,1.29604 -5.66027,3.57603 -8.12003,4.96997 l -0.47072,0.26676 -0.64388,-0.44073 c -0.35413,-0.2424 -0.6354,-0.46615 -0.62505,-0.49724 0.0104,-0.0311 1.04295,-0.82828 2.29466,-1.77155 2.3259,-1.75278 4.84121,-3.70967 5.25044,-4.0848 l 0.22841,-0.20938 -0.50574,0.31616 c -0.27816,0.17389 -1.16953,0.73892 -1.98082,1.25561 -1.31129,0.83513 -5.65241,3.48226 -6.12365,3.73407 l -0.18122,0.0968 -0.64061,-0.46783 c -0.35234,-0.25731 -0.64061,-0.50006 -0.64061,-0.53944 0,-0.0394 0.50258,-0.44132 1.11684,-0.89318 1.24742,-0.91763 5.79011,-4.39267 5.92137,-4.5297 0.0464,-0.0484 -0.0105,-0.03 -0.12644,0.0408 -1.37381,0.83995 -5.35509,3.2229 -6.23745,3.73337 -0.62586,0.36207 -1.25618,0.72916 -1.40073,0.81577 l -0.26281,0.15747 -0.66438,-0.51236 c -0.36541,-0.2818 -0.67514,-0.54168 -0.6883,-0.57752 -0.0243,-0.0661 4.22114,-3.11103 6.30352,-4.52107 1.27712,-0.86477 2.56202,-1.63415 3.15001,-1.88619 0.21586,-0.0925 0.72385,-0.23071 1.12886,-0.30706 l 0.73639,-0.13883 0.96933,0.0418 0.96933,0.0418 1.26766,0.26251 c 2.08366,0.43148 7.173645,1.86511 11.411728,3.21418 5.6204649,1.78912 10.0488359,2.68988 14.51454486,2.95236 l 1.55745404,0.0915 1.035032,-0.0899 c 1.989667,-0.17276 2.909738,-0.46632 3.815426,-1.21735 1.438673,-1.19299 3.33766,-4.26364 4.7492521,-7.6795 0.602045,-1.45687 1.676127,-4.42168 1.621618,-4.47619 -0.01188,-0.0119 -0.206266,0.40248 -0.431967,0.9208 -2.0495941,4.70688 -4.6997591,9.04355 -6.3461431,10.38468 -0.57991,0.4724 -0.94651,0.66325 -1.501581,0.78173 -0.633141,0.13514 -0.969335,0.1857 -0.969335,0.14576 0,-0.0197 0.284361,-0.47193 0.631912,-1.00497 1.00478,-1.54103 2.187689,-3.65244 3.168775,-5.65604 0.928117,-1.89544 2.038418,-4.34593 1.990719,-4.39363 -0.01461,-0.0146 -0.365902,0.6068 -0.780659,1.38089 -1.789906,3.34067 -3.871806,6.56818 -5.789566,8.97541 l -0.655393,0.82267 -0.441881,-0.007 c -0.243034,-0.004 -0.61827004,-0.0325 -0.83385704,-0.0632 l -0.391977,-0.0558 0.92365004,-1.51722 c 1.362689,-2.2384 2.33971,-3.97958 3.452712,-6.15317 0.907636,-1.77253 1.503487,-3.01412 1.395578,-2.908 -0.02357,0.0232 -0.486715,0.78179 -1.029209,1.6858 -2.03692,3.39431 -5.81752204,8.85093 -6.131839,8.8502 -0.161266,-3.7e-4 -1.617452,-0.1826 -1.641751,-0.20545 -0.01197,-0.0113 0.567983,-1.00111 1.288787,-2.19966 0.72080496,-1.19856 1.64526296,-2.78817 2.05435196,-3.53246 0.90354104,-1.6439 2.42487404,-4.58856 2.31041504,-4.472 -0.04552,0.0464 -0.39906,0.59635 -0.785643,1.22221 -1.46407304,2.37023 -3.555012,5.41836 -5.464075,7.9654 -0.347474,0.46359 -0.637522,0.85167 -0.644551,0.8624 -0.01829,0.0279 -1.589381,-0.23028 -1.626374,-0.26727 -0.01693,-0.0169 0.421878,-0.80258 0.975119,-1.74588 1.657358,-2.8259 4.45764296,-7.991 4.17442396,-7.6997 -0.04507,0.0464 -0.45469896,0.67221 -0.91028196,1.39079 -1.047342,1.65193 -2.281603,3.46659 -3.783819,5.56313 -0.647742,0.90401 -1.27554,1.78446 -1.395108,1.95655 l -0.217397,0.31288 -0.138491,0.003 c -0.138499,0.003 -1.442906,-0.25025 -1.485668,-0.28867 -0.01246,-0.0112 0.230341,-0.47164 0.539552,-1.02322 1.606519,-2.86578 4.217176,-7.76632 4.059198,-7.61964 -0.02496,0.0232 -0.766561,1.12316 -1.647991,2.44441 -1.237396,1.85483 -3.957115,5.8069 -4.106425,5.96711 -0.04591,0.0493 -1.6453969,-0.34972 -1.6453969,-0.41044 0,-0.0343 0.279692,-0.54951 0.621538,-1.14483 0.572275,-0.9966 3.1201909,-5.66804 3.4637199,-6.35051 0.236681,-0.4702 0.07874,-0.25669 -1.558818,2.10725 -1.3913829,2.00856 -3.4461099,4.89043 -3.6319389,5.09398 l -0.07188,0.0787 -0.84424,-0.1993 c -0.464332,-0.10961 -0.84424,-0.23077 -0.84424,-0.26925 0,-0.0856 3.169357,-5.43643 4.084377,-6.89571 1.8769079,-2.9933 2.8424989,-3.8398 5.1392529,-4.50537 1.829398,-0.53014 7.71608,-1.39934 13.450365,-1.98603 7.4626721,-0.76352 14.4462391,-2.67476 17.7081701,-4.84631 l 0.820417,-0.54618 0.350361,-0.39803 c 1.069143,-1.21461 1.649943,-3.65802 1.81904,-7.65265 l 0.05352,-1.26435 -0.09236,-1.6858 c -0.0508,-0.92719 -0.139784,-2.17889 -0.197744,-2.78156 l -0.105381,-1.09577 -0.01882,0.8429 c -0.01035,0.46359 -0.05895,1.85851 -0.108006,3.09982 l -0.08919,2.25693 -0.165372,1.45183 c -0.194192,1.70483 -0.347933,2.5886 -0.64114,3.68551 -0.245252,0.91752 -0.73703,2.02104 -1.08197,2.42788 -0.253643,0.29917 -1.21099,0.98579 -1.279268,0.91751 -0.02273,-0.0227 0.03592,-0.56664 0.130312,-1.20869 0.41547,-2.82586 0.598197,-5.65171 0.598269,-9.25217 2.6e-5,-1.34056 -0.01737,-2.41996 -0.03867,-2.39867 -0.02129,0.0213 -0.07956,0.64398 -0.129485,1.38376 -0.295287,4.37563 -0.73256,7.45226 -1.530594,10.76919 l -0.340827,1.41661 -0.438346,0.19385 c -0.526404,0.2328 -1.062482,0.41464 -1.102625,0.37401 -0.01602,-0.0162 0.06031,-0.72564 0.169616,-1.57651 0.403726,-3.14275 0.724629,-7.54014 0.702128,-9.62138 l -0.01048,-0.96934 -0.07504,0.67432 c -0.451106,4.05386 -1.073281,7.80784 -1.889033,11.39774 l -0.1383,0.60862 -0.728952,0.21743 c -0.400923,0.11958 -0.781687,0.23534 -0.846142,0.25724 l -0.11719,0.0398 0.05252,-0.44441 c 0.02889,-0.24443 0.14834,-1.24096 0.265453,-2.21451 0.269416,-2.23962 0.519249,-5.21539 0.632617,-7.53513 0.08841,-1.80904 0.07402,-2.36353 -0.03364,-1.29642 -0.100967,1.00071 -0.552699,4.02652 -0.857039,5.74064 -0.287315,1.61824 -1.202063,6.00744 -1.266084,6.075 -0.06311,0.0666 -1.500231,0.42497 -1.540948,0.38425 -0.02283,-0.0228 0.06121,-1.03659 0.186744,-2.25281 0.361101,-3.49834 0.726833,-8.60611 0.623615,-8.70933 -0.01993,-0.0199 -0.08321,0.35296 -0.140613,0.82864 -0.179673,1.48877 -0.836621,5.31125 -1.365356,7.94438 -0.279177,1.39031 -0.514298,2.53289 -0.522489,2.53906 -0.0082,0.006 -0.365752,0.0874 -0.794577,0.18062 l -0.779682,0.1694 v -0.073 c 0,-0.0402 0.05616,-0.69001 0.124804,-1.44412 0.189139,-2.07787 0.452,-5.85679 0.502866,-7.22924 l 0.0453,-1.22221 -0.29311,1.77009 c -0.262779,1.58692 -0.993731,5.66484 -1.374888,7.67039 l -0.144175,0.7586 -0.780059,0.16054 c -0.429033,0.0883 -0.803477,0.13711 -0.832099,0.10849 -0.02862,-0.0286 0.02873,-1.01119 0.12744,-2.18349 0.173776,-2.06373 0.522948,-6.76938 0.510591,-6.88102 -0.0033,-0.0302 -0.301057,1.50019 -0.661578,3.40093 -0.360522,1.90074 -0.774736,4.00346 -0.920475,4.67273 l -0.264981,1.21684 -0.09308,0.0575 c -0.1191781,0.0737 -1.5849821,0.2853 -1.6343071,0.23598 -0.06855,-0.0686 0.796766,-7.51488 1.046652,-9.00679 0.291067,-1.73779 0.477602,-2.37716 0.9090441,-3.11587 l 0.318319,-0.54502 0.632174,-0.66754 c 0.723634,-0.76413 1.42226,-1.31403 3.034438,-2.38845 1.959211,-1.3057 6.387094,-3.98649 9.440474,-5.71557 3.150265,-1.78395 6.389896,-3.99959 8.934734,-6.11062 1.296294,-1.07532 3.453996,-3.18231 4.187204,-4.08878 0.621366,-0.76821 1.293355,-1.85859 1.514989,-2.45826 l 0.150649,-0.4076 -0.0047,-1.05363 -0.0047,-1.05362 -0.229942,-0.99607 c -0.462313,-2.00268 -1.3194,-4.21434 -2.668156,-6.88504 -1.245918,-2.46706 -2.321764,-4.32088 -1.638715,-2.82371 1.737883,3.80925 2.940824,7.17507 3.419207,9.56691 l 0.193874,0.96933 0.0056,0.96933 0.0056,0.96934 -0.115814,0.33716 c -0.135383,0.39413 -0.667587,1.30649 -0.76211,1.30649 -0.03573,0 -0.150352,-0.31292 -0.254718,-0.69539 -0.38639,-1.416 -1.310922,-4.11751 -1.983189,-5.79493 -0.680105,-1.69698 -2.234237,-5.17213 -2.288693,-5.11767 -0.01525,0.0152 0.144284,0.48073 0.354517,1.03441 1.407107,3.70577 2.427225,7.27397 3.07905,10.76998 l 0.185917,0.99716 -0.596063,0.59606 -0.596062,0.59606 -0.267295,-0.87675 c -0.960903,-3.15186 -1.962657,-5.96073 -3.209873,-9.00031 -0.679147,-1.65515 -0.927487,-2.14356 -0.580199,-1.14109 0.42098,1.21519 1.308893,4.1767 1.727937,5.7633 0.479642,1.81605 1.391186,5.81242 1.381411,6.05635 l -0.0057,0.14228 -0.628979,0.53835 c -0.345939,0.2961 -0.643945,0.52339 -0.662236,0.5051 -0.01829,-0.0183 -0.340733,-1.0111 -0.716536,-2.20623 -0.772086,-2.4554 -1.357818,-4.13422 -2.211656,-6.33903 -0.899848,-2.32362 -0.933748,-2.40749 -0.961753,-2.37948 -0.0144,0.0144 0.143351,0.58853 0.350554,1.27585 0.854257,2.83371 1.692704,6.16341 2.362685,9.38287 l 0.23195,1.11459 -0.20388,0.16159 c -0.112134,0.0889 -0.402978,0.32067 -0.646321,0.51509 l -0.442441,0.35351 -0.04093,-0.11247 c -0.02251,-0.0619 -0.45596,-1.34521 -0.96322,-2.85189 -0.785485,-2.33308 -1.463616,-4.19628 -2.370505,-6.5131 -0.104711,-0.2675 -0.20498,-0.47177 -0.222821,-0.45393 -0.01784,0.0178 0.122256,0.55912 0.311327,1.20283 0.479433,1.6323 1.344308,5.02926 1.853869,7.28142 0.236003,1.04309 0.44745,1.95892 0.469883,2.03518 l 0.04079,0.13866 -0.571828,0.41401 c -0.314505,0.22771 -0.614347,0.43953 -0.666316,0.4707 l -0.09449,0.0567 -0.316884,-0.90437 c -1.110873,-3.17037 -3.07035,-8.39824 -3.126668,-8.34192 -0.01429,0.0143 0.163473,0.7074 0.395039,1.54023 0.421985,1.51769 2.098848,8.182 2.099322,8.34328 2.86e-4,0.0973 -1.327845,1.01642 -1.385465,0.9588 -0.02055,-0.0206 -0.261459,-0.68271 -0.535351,-1.47147 -0.789614,-2.27393 -2.400734,-6.61646 -2.440147,-6.57705 -0.01973,0.0197 0.269093,1.28127 0.641838,2.80341 0.627819,2.56377 1.359258,5.74688 1.359258,5.91529 0,0.0745 -1.432283,1.05757 -1.470733,1.00947 -0.01188,-0.0149 -0.519051,-1.5632 -1.127052,-3.44076 -1.162822,-3.59089 -1.59476,-5.02861 -1.886604,-6.2796 l -0.176976,-0.75861 -0.0026,-0.80075 -0.0026,-0.80076 0.10844,-0.50573 c 0.35459,-1.65374 1.524036,-3.65173 5.229603,-8.93474 0.942995,-1.34443 2.206382,-3.10819 2.807526,-3.91948 3.983178,-5.37561 7.0834,-11.16137 8.084646,-15.0879 l 0.247175,-0.96934 0.04925,-0.89751 0.04925,-0.89751 -0.102909,-0.40898 c -0.168625,-0.67015 -0.738124,-1.72049 -1.460061,-2.69282 l -0.678377,-0.91366 -1.272691,-1.29861 c -1.739413,-1.77484 -3.58646,-3.34644 -5.908638,-5.02747 -0.804683,-0.58251 -0.702819,-0.47425 0.840792,0.89363 2.207812,1.95646 4.620468,4.48588 5.898386,6.18383 0.638176,0.84794 1.192223,1.78783 1.436587,2.43705 l 0.211084,0.5608 -0.0084,0.73561 c -0.0046,0.40459 -0.03386,0.82654 -0.06497,0.93768 l -0.05657,0.20207 -0.941342,-1.09583 c -2.208417,-2.57085 -4.665494,-4.97552 -7.821298,-7.65447 l -0.59003,-0.50088 1.812924,1.85268 c 1.90725,1.94907 3.420916,3.66296 4.794122,5.42826 0.827821,1.06419 2.267829,3.07362 2.347347,3.27556 0.03755,0.0953 -0.31855,1.22914 -0.47717,1.51929 l -0.06015,0.11003 -1.552902,-1.75368 c -1.568102,-1.77084 -5.166771,-5.4347 -6.482914,-6.60035 l -0.713793,-0.63217 0.961659,1.05303 c 2.300985,2.51963 4.327161,5.00165 6.52223,7.98962 l 0.82235,1.11939 -0.384345,0.81136 c -0.211391,0.44625 -0.397182,0.79596 -0.41287,0.77713 -0.312609,-0.37518 -2.248331,-2.55588 -2.910986,-3.27939 -1.100623,-1.2017 -4.917417,-5.06576 -4.960872,-5.0223 -0.01753,0.0175 0.468944,0.61421 1.081061,1.32595 1.561103,1.81519 3.095236,3.74542 4.833418,6.08136 l 1.492455,2.00572 -0.348857,0.64942 c -0.191871,0.35718 -0.377476,0.67904 -0.412454,0.71524 l -0.0636,0.0658 -1.374404,-1.49875 c -1.901937,-2.07401 -4.943462,-5.21666 -5.578601,-5.76408 l -0.527808,-0.45491 0.969169,1.14201 c 1.350573,1.59142 3.014515,3.68225 4.619642,5.8048 l 1.365076,1.80512 -0.04521,0.11783 c -0.02487,0.0648 -0.202383,0.38694 -0.394478,0.71585 l -0.349263,0.59802 -0.599589,-0.62507 c -2.716148,-2.83158 -5.453914,-5.61725 -5.886861,-5.98987 l -0.522812,-0.44996 0.84706,1.01148 c 1.020918,1.21908 3.158057,3.89098 4.57067,5.71434 l 1.031371,1.33127 -0.430529,0.71277 c -0.236791,0.39202 -0.456431,0.70958 -0.488089,0.70569 -0.03166,-0.004 -0.467483,-0.44956 -0.9685,-0.9904 -1.411164,-1.52333 -5.339468,-5.49688 -5.013648,-5.07141 0.159754,0.20862 1.089787,1.40686 2.066739,2.66276 0.976952,1.2559 2.122717,2.7517 2.546144,3.324 l 0.769867,1.04055 -0.04837,0.12605 c -0.08706,0.22689 -0.828505,1.35993 -0.889911,1.35993 -0.06136,0 -4.143358,-4.47534 -5.189514,-5.68957 -0.875588,-1.01627 -1.483914,-1.78571 -1.962908,-2.4828 l -0.431807,-0.62842 -0.269316,-0.80451 -0.269315,-0.80451 0.0028,-1.55936 0.0028,-1.55937 0.231809,-1.51722 c 0.383809,-2.51207 1.067181,-6.11246 2.191818,-11.54772 0.606263,-2.93001 1.002423,-6.07762 1.155941,-9.18431 l 0.09564,-1.93537 -0.09656,-1.65602 c -0.148844,-2.55271 -0.468165,-4.16014 -1.045382,-5.26235 l -0.264851,-0.50574 -0.476397,-0.47241 c -1.234459,-1.22412 -3.796361,-2.51114 -7.169085,-3.60154 -1.325027,-0.42838 -4.6728021,-1.29853 -5.3815371,-1.39877 l -0.379305,-0.0536 1.643654,0.53726 c 3.9299111,1.28457 7.2874451,2.73372 9.1454591,3.94731 l 0.67432,0.44044 0.643168,0.63861 0.643169,0.63862 0.223131,0.70633 c 0.122722,0.38849 0.20341,0.72606 0.179306,0.75016 -0.0241,0.0241 -0.641522,-0.24332 -1.37204,-0.59427 -2.564976,-1.23227 -5.464044,-2.35544 -8.624981,-3.34154 -0.907137,-0.28299 -1.6847121,-0.51309 -1.7279441,-0.51133 -0.04323,0.002 0.7937981,0.35627 1.8600661,0.78781 3.743213,1.51495 6.643291,2.95347 9.566601,4.74531 l 0.547576,0.33563 0.05867,0.33026 c 0.03227,0.18164 0.06085,0.56549 0.06353,0.85299 l 0.0049,0.52272 -0.906117,-0.42396 c -1.794435,-0.83959 -3.804254,-1.70773 -5.542064,-2.3939 -1.849411,-0.73022 -4.680669,-1.75114 -4.727231,-1.70458 -0.01487,0.0149 0.682335,0.34542 1.549343,0.73456 2.172713,0.97517 5.37775,2.58795 7.392386,3.71985 0.927189,0.52092 1.827725,1.02618 2.001191,1.12277 l 0.315392,0.17564 6.95e-4,0.86397 6.95e-4,0.86397 h -0.08601 c -0.04731,0 -0.758503,-0.30806 -1.580436,-0.68458 -1.915244,-0.87736 -3.694008,-1.64543 -5.287472,-2.28312 -1.507576,-0.60332 -3.938106,-1.50934 -3.967725,-1.47903 -0.01157,0.0118 0.345414,0.18995 0.793289,0.39582 2.349278,1.07987 5.371374,2.64737 8.546181,4.43273 l 1.494407,0.84039 4.49e-4,0.71646 c 2.46e-4,0.39406 -0.03312,0.76948 -0.07415,0.83428 l -0.0746,0.11781 -1.67313,-0.73968 c -2.659307,-1.17565 -8.019504,-3.33278 -8.276335,-3.33068 -0.03063,2.5e-4 1.082213,0.56692 2.472997,1.25927 2.319616,1.15473 4.155921,2.12804 6.564587,3.47948 l 0.917161,0.51459 -0.05761,0.76317 c -0.03169,0.41974 -0.07259,0.77815 -0.09091,0.79647 -0.01831,0.0183 -1.144755,-0.42354 -2.503203,-0.9819 -1.358449,-0.55835 -2.925073,-1.19174 -3.481387,-1.40753 -1.144795,-0.44407 -2.865512,-1.09389 -3.118728,-1.17778 -0.09272,-0.0307 0.855543,0.46917 2.107249,1.11086 1.251706,0.64169 3.311829,1.71607 4.578051,2.38751 l 2.302223,1.2208 -0.05323,0.59003 c -0.02928,0.32452 -0.07909,0.70979 -0.110684,0.85617 l -0.05745,0.26613 -1.09577,-0.4648 c -1.443057,-0.61212 -7.148504,-2.89327 -7.173614,-2.86816 -0.01077,0.0108 1.010968,0.56751 2.270524,1.2372 2.460256,1.30811 5.702902,3.09361 5.814053,3.2014 l 0.06806,0.066 -0.101309,0.74955 c -0.05572,0.41225 -0.124532,0.79472 -0.152914,0.84993 l -0.05161,0.10038 -3.371037,-1.49949 c -6.155776,-2.73817 -6.929216,-3.16477 -7.9289541,-4.3733 l -0.467742,-0.56543 -0.413967,-0.8249 -0.413967,-0.82491 -0.382986,-1.18939 c -0.691686,-2.14809 -2.196339,-8.14308 -2.947307,-11.74296 -1.206603,-5.78403 -3.552135,-12.07171 -5.74222504,-15.39321 l -0.54277596,-0.82318 -0.683481,-0.72205 -0.683481,-0.72205 -0.685389,-0.3346 -0.68539,-0.33459 -0.885044,-0.18754 -0.885045,-0.18754 -2.402263,-0.004 -2.4022629,-0.004 -1.01148,0.11299 c -1.836316,0.20513 -6.00529,0.90588 -5.916659,0.99451 0.01836,0.0184 0.769203,-0.0417 1.66853,-0.13344 0.899328,-0.0918 2.469611,-0.21089 3.48952,-0.26473 l 1.854379,-0.0979 1.5978039,0.0554 c 2.51777,0.0872 4.070932,0.34578 5.15343,0.85788 l 0.443414,0.20977 0.469666,0.50729 c 0.258316,0.27902 0.469665,0.53602 0.469665,0.57113 v 0.0638 l -2.36006,-0.0374 -2.36006,-0.0374 -1.749075,0.0992 c -1.9776359,0.1122 -6.6516899,0.5698 -6.5766019,0.64387 0.01265,0.0125 1.160915,-0.0189 2.551699,-0.0698 l 2.528698,-0.0925 2.3179739,0.10057 c 2.501904,0.10855 5.260125,0.35642 6.328474,0.56871 l 0.217452,0.0432 0.351505,0.6597 c 0.193327,0.36284 0.35150396,0.68365 0.35150396,0.71292 0,0.0293 -1.50150696,0.0532 -3.33668196,0.0532 h -3.336682 l -1.615352,0.0902 c -0.8884439,0.0496 -2.2032749,0.13944 -2.9218469,0.19966 l -1.306494,0.10949 1.26435,0.0127 c 1.785475,0.0179 5.4318019,0.15887 6.8274849,0.26387 1.466638,0.11033 4.55873696,0.40886 4.85987596,0.46921 l 0.22393,0.0449 0.302883,0.70505 c 0.166585,0.38777 0.302882,0.74465 0.302882,0.79307 v 0.088 l -2.46548096,-0.0516 -2.46548,-0.0516 -2.612989,0.10564 c -1.437143,0.0581 -2.9733279,0.13163 -3.4137429,0.16338 l -0.800754,0.0577 0.716465,0.0568 c 0.394055,0.0313 1.4561079,0.0789 2.3601179,0.10578 0.90401,0.0269 2.383298,0.10374 3.287308,0.17073 1.47594,0.10936 5.92831896,0.53763 5.95189796,0.5725 0.03069,0.0454 0.53842804,1.40727 0.53842804,1.4442 0,0.0247 -0.74912704,0.0462 -1.66472704,0.0479 -1.80051996,0.003 -6.09245396,0.11975 -7.97343296,0.21634 l -1.167021,0.0599 0.113396,0.0598 c 0.06237,0.0329 0.890971,0.0844 1.84134,0.11445 1.907867,0.0603 4.316985,0.22538 7.33322596,0.5024 l 1.98081304,0.18192 0.2425,0.69874 0.2425,0.69873 -0.0598,0.0599 c -0.03289,0.0329 -1.298895,0.0865 -2.81334304,0.11901 -1.51444796,0.0325 -3.52674096,0.0989 -4.47176296,0.1475 -0.945022,0.0486 -1.905005,0.0884 -2.133296,0.0884 h -0.415074 l 0.04396,0.0711 0.04396,0.0711 1.46181,0.0571 c 1.509113,0.0589 3.614484,0.19578 6.86952396,0.44662 l 1.87683104,0.14463 0.212491,0.67942 c 0.116871,0.37368 0.232597,0.74579 0.257171,0.82692 l 0.04468,0.14751 -1.417537,-0.002 c -1.48120004,-0.002 -7.880688,0.18328 -7.837489,0.22647 0.01367,0.0137 1.25514,0.12021 2.758813,0.23674 4.183371,0.32419 6.685648,0.56231 6.790781,0.64622 0.05236,0.0418 0.117274,0.17944 0.144247,0.30589 0.02697,0.12645 0.123203,0.48422 0.213843,0.79505 l 0.164801,0.56514 -4.18638504,-0.0421 c -4.44506696,-0.0447 -6.34759396,-0.13066 -7.30511296,-0.3301 l -0.590029,-0.1229 -0.674616,-0.33246 c -0.371038,-0.18286 -0.92103,-0.51908 -1.222204,-0.74716 -1.4070069,-1.06555 -4.1106859,-4.30479 -8.6695309,-10.38684 -1.094595,-1.46033 -2.367273,-3.1103 -2.828174,-3.66662 -4.179307,-5.04448 -8.505347,-8.85101 -11.370647,-10.00518 l -0.69039,-0.2781 -1.01148,0.003 -1.01148,0.003 -0.826,0.22803 c -1.69915,0.46907 -4.21329,1.60547 -6.38079,2.88412 -1.00665,0.59384 -3.93037,2.51955 -4.29879,2.83139 l -0.21072,0.17837 0.32537,-0.18952 c 4.05918,-2.36433 7.75981,-4.07334 10.24641,-4.73197 l 0.97594,-0.2585 0.96933,-0.0102 0.96934,-0.0102 0.6111,0.28642 c 0.33611,0.15753 0.6108,0.30925 0.61042,0.33716 -3.7e-4,0.0279 -0.52191,0.25607 -1.15898,0.50703 -1.66374,0.65539 -3.72719,1.59584 -5.33066,2.42952 -1.38546,0.72034 -4.68698,2.58146 -4.84597,2.73176 -0.046,0.0435 0.61782,-0.25941 1.47508,-0.67304 3.61843,-1.74589 7.02546,-3.0688 10.34776,-4.01791 l 0.78157,-0.22328 0.66966,0.49123 c 0.36831,0.27017 0.6709,0.51206 0.67243,0.53751 0.002,0.0255 -0.13946,0.0972 -0.31331,0.15945 -0.68982,0.24697 -3.94213,1.66144 -5.44657,2.36879 -1.59108,0.74808 -5.37992,2.70539 -5.33121,2.7541 0.0142,0.0142 0.42041,-0.1501 0.90279,-0.36502 2.70791,-1.2065 7.87558,-3.12215 10.54768,-3.91002 l 0.65161,-0.19212 0.63871,0.57163 0.6387,0.57164 -0.0681,0.0644 c -0.0375,0.0354 -0.50432,0.24296 -1.03745,0.4612 -2.25342,0.92246 -4.41954,1.90304 -6.93208,3.13808 -1.4715,0.72332 -2.66387,1.3267 -2.64973,1.34084 0.0142,0.0142 0.61781,-0.21708 1.34147,-0.51385 2.24111,-0.91905 4.20751,-1.63564 7.21766,-2.63025 1.59324,-0.52644 2.94086,-0.95716 2.99472,-0.95716 0.0539,0 0.34189,0.24615 0.64006,0.54699 l 0.54213,0.54699 -0.081,0.0741 c -0.0445,0.0408 -1.03802,0.4964 -2.20776,1.01252 -2.46256,1.08656 -5.85095,2.69425 -6.7658,3.21017 -0.34769,0.19608 -0.57527,0.33699 -0.50574,0.31314 0.0695,-0.0239 0.97988,-0.3742 2.02296,-0.77854 1.93805,-0.75127 6.23715,-2.26419 7.66286,-2.69668 l 0.79323,-0.24063 0.49071,0.54425 c 0.26989,0.29934 0.48009,0.57811 0.46712,0.61949 -0.013,0.0414 -0.8373,0.44995 -1.83183,0.90792 -1.95838,0.90183 -7.0046,3.37333 -6.96611,3.41182 0.013,0.013 0.85643,-0.2922 1.87429,-0.67821 1.72313,-0.65347 4.61035,-1.69035 6.85267,-2.46099 l 0.956096,-0.32859 0.537635,0.59003 c 0.295699,0.32452 0.528328,0.62122 0.516953,0.65934 -0.01138,0.0381 -0.778378,0.41883 -1.704454,0.84603 -2.28591,1.05449 -6.19892,2.94231 -6.16631,2.97492 0.0145,0.0146 1.14287,-0.3657 2.50737,-0.845 1.3645,-0.47931 3.31468,-1.1469 4.333735,-1.48355 l 1.852823,-0.61208 0.322308,0.36809 c 0.604109,0.68991 0.82301,0.98766 0.756386,1.02883 -0.135763,0.0839 -5.927152,2.58528 -7.021412,3.03264 -1.50205,0.61406 -2.67145,1.01528 -3.48864,1.19693 l -0.66832,0.14856 -0.80676,-0.0505 -0.80675,-0.0505 -0.64764,-0.16711 c -0.96584,-0.24923 -2.58552,-0.94122 -4.66263,-1.99206 -2.21987,-1.12306 -5.73317,-3.01242 -7.88111,-4.23824 -5.7719,-3.29401 -11.58198,-5.6355 -15.84651,-6.38624 l -0.80075,-0.14097 -1.09577,-0.0101 -1.09577,-0.0101 -0.57841,0.19939 -0.57841,0.19939 -0.77023,0.51481 -0.77023,0.51481 -1.01148,0.98385 c -1.60692,1.56302 -3.37367,3.80171 -4.92163,6.2363 -0.79938,1.25725 -1.45457,2.35072 -1.40851,2.35072 0.017,0 0.27032,-0.33189 0.56297,-0.73753 2.40855,-3.33856 5.23921,-6.51449 7.0769,-7.94009 l 0.79752,-0.61869 0.68548,-0.3307 0.68547,-0.3307 0.63282,-0.0479 c 0.34805,-0.0263 0.73511,-0.0222 0.86013,0.009 l 0.22732,0.0571 -1.08691,1.1195 c -2.32498,2.39469 -4.65336,5.24928 -6.74711,8.27194 l -0.29193,0.42145 0.32583,-0.37646 c 0.1792,-0.20705 0.69977,-0.81394 1.15681,-1.34864 2.24737,-2.6292 4.78613,-5.17622 7.06436,-7.08733 l 0.98357,-0.82508 0.7401,0.16174 c 0.40706,0.089 0.77048,0.16173 0.80759,0.16173 0.1925,0 -0.0271,0.28542 -0.98332,1.27795 -2.03488,2.11217 -4.19058,4.61122 -6.05949,7.02461 l -0.91383,1.18006 0.82185,-0.88504 c 1.54696,-1.6659 5.38912,-5.44295 6.92734,-6.80995 0.84551,-0.7514 1.56011,-1.36618 1.588,-1.36618 0.0657,0 1.58445,0.52032 1.6282,0.55781 0.0183,0.0157 -0.45584,0.54636 -1.05362,1.1793 -2.23949,2.37119 -4.03337,4.41009 -5.81301,6.60698 l -0.9213,1.1373 2.31797,-2.32281 c 1.98105,-1.98518 5.0378,-4.83383 6.30916,-5.87965 l 0.36672,-0.30166 0.71548,0.24801 c 0.39351,0.1364 0.73359,0.27733 0.75574,0.31317 0.0437,0.0707 -0.0825,0.21803 -1.90322,2.22259 -1.38678,1.52675 -3.24869,3.68807 -4.34806,5.04726 l -0.74996,0.92719 2.14542,-2.10725 c 2.25292,-2.21283 5.9288,-5.60528 6.07359,-5.60528 0.11684,0 1.2809,0.49866 1.36982,0.5868 l 0.072,0.0714 -1.25207,1.42511 c -1.40904,1.60378 -3.05031,3.53469 -4.28332,5.0392 l -0.82895,1.01148 0.75004,-0.72085 c 0.41253,-0.39647 1.39584,-1.34473 2.18515,-2.10725 1.79145,-1.73065 4.40283,-4.15822 4.51522,-4.1974 0.11409,-0.0398 1.50933,0.59334 1.50933,0.68489 0,0.0399 -0.42867,0.55358 -0.95261,1.14149 -0.96309,1.08067 -2.14781,2.45513 -3.97285,4.60909 l -0.99986,1.18006 0.45504,-0.42606 c 0.25027,-0.23433 1.06192,-0.99436 1.80367,-1.68895 1.60701,-1.50485 3.20934,-2.97668 4.11231,-3.77742 l 0.65643,-0.5821 0.79347,0.37141 c 0.43641,0.20427 0.78583,0.39984 0.7765,0.4346 -0.0374,0.13921 -5.2044,5.68766 -6.20008,6.65776 -0.5862,0.57114 -1.31488,1.2159 -1.61929,1.4328 l -0.55348,0.39437 -0.62658,0.24977 c -0.83739,0.3338 -1.67502,0.49331 -2.94456,0.56073 l -1.05362,0.056 -1.85438,-0.0942 c -2.50183,-0.12714 -6.79363,-0.46034 -9.81978,-0.76238 -1.36761,-0.1365 -3.33999,-0.2927 -4.38308,-0.34711 l -1.89652,-0.0989 -2.40227,0.0503 -2.40226,0.0503 -1.2612,0.12694 c -4.04372,0.40702 -6.59482,1.09815 -7.86735,2.13139 -1.36277,1.10651 -2.70891,4.35797 -3.55168,8.5787 -0.25864,1.29532 -0.63187,3.78426 -0.71413,4.76238 l -0.0461,0.54789 0.17169,-0.75861 c 1.35859,-6.00301 2.43516,-9.22172 3.7637,-11.25271 l 0.41353,-0.63218 0.43509,-0.39079 0.43509,-0.3908 0.55971,-0.22407 c 0.30784,-0.12323 0.58173,-0.20205 0.60863,-0.17514 0.0269,0.0269 -0.0202,0.22773 -0.10475,0.44628 -0.7544,1.95064 -1.64101,4.77581 -2.188,6.97198 -0.38125,1.5307 -0.99378,4.42529 -0.95872,4.53049 0.015,0.045 0.18875,-0.49036 0.38611,-1.18965 1.02717,-3.63934 2.24372,-6.91311 3.7109,-9.98613 l 0.57658,-1.20766 0.7082,-0.14058 c 0.38951,-0.0773 0.77253,-0.14055 0.85116,-0.14051 l 0.14297,6e-5 -0.17235,0.48467 c -0.61987,1.74316 -1.58197,4.6837 -1.9708,6.02347 -0.49072,1.69091 -1.41296,5.29554 -1.36669,5.34181 0.0154,0.0154 0.19222,-0.47301 0.39291,-1.08537 0.99393,-3.03271 2.08071,-5.85318 3.33583,-8.65733 0.40463,-0.90401 0.79389,-1.78506 0.86502,-1.95789 l 0.12933,-0.31423 0.13545,-0.0393 c 0.0745,-0.0216 0.49243,-0.0658 0.92873,-0.0981 l 0.79328,-0.0587 -0.0655,0.15944 c -0.21423,0.52176 -1.63676,4.75167 -1.99114,5.92067 -0.53062,1.75038 -1.36757,4.81988 -1.32565,4.8618 0.0174,0.0174 0.25332,-0.58295 0.52431,-1.33408 0.96316,-2.66974 2.44554,-6.25236 3.66373,-8.85457 l 0.42037,-0.89797 h 0.80625 0.80625 v 0.0655 c 0,0.036 -0.26639,0.86099 -0.59198,1.8333 -0.9611,2.87015 -2.45134,7.91265 -2.43934,8.25398 0.002,0.0487 0.30009,-0.68911 0.66307,-1.63947 0.92249,-2.41529 1.37991,-3.53842 2.36871,-5.81601 0.47297,-1.08945 0.93693,-2.16098 1.03101,-2.38119 l 0.17107,-0.40038 h 0.82215 0.82215 l -0.37146,1.20113 c -0.99942,3.23169 -2.42279,8.23574 -2.36035,8.29817 0.0162,0.0162 0.13634,-0.26536 0.26692,-0.62576 0.38744,-1.06928 1.90422,-4.83499 2.7899,-6.92643 l 0.82455,-1.94711 h 0.87668 0.87668 l -0.0545,0.14203 c -0.26679,0.69525 -2.51634,8.29095 -2.46936,8.33793 0.0126,0.0126 0.56589,-1.27388 1.22957,-2.85883 0.66368,-1.58494 1.47939,-3.48859 1.81269,-4.23034 l 0.606,-1.34864 0.88278,0.0306 c 0.48554,0.0168 0.8925,0.0392 0.90437,0.0497 0.034,0.03 -2.12696,6.42414 -2.64827,7.83616 -0.25812,0.69913 -0.66126,1.66734 -0.89588,2.15157 l -0.42657,0.88041 -0.63105,0.66052 -0.63104,0.66051 -0.57318,0.38104 c -1.34034,0.89106 -4.1689,2.02139 -10.0621,4.02095 -1.29806,0.44044 -2.87218,0.96026 -3.49803,1.15516 -1.60076,0.49851 -4.30243,1.50057 -6.00984,2.22909 -3.111237,1.3275 -5.329907,2.49183 -7.560837,3.96782 -1.46123,0.96676 -2.34161,1.68706 -3.05463,2.49919 l -0.48102,0.54789 -0.26162,0.55907 -0.26162,0.55907 -0.11701,0.65637 -0.11701,0.65637 -0.003,1.18057 -0.003,1.18058 0.12338,1.05311 c 0.25293,2.15876 0.75506,4.44836 1.55762,7.10236 0.63542,2.10124 0.7207,2.25472 0.37767,0.67961 -0.46343,-2.12789 -0.75132,-3.79149 -1.01859,-5.88597 l -0.15058,-1.18006 -7.6e-4,-2.0651 -7.6e-4,-2.0651 0.14525,-0.57076 c 0.0799,-0.31391 0.22565,-0.72837 0.32392,-0.921 0.17221,-0.33756 0.965,-1.24767 1.08684,-1.24767 0.0327,0 0.0853,0.46465 0.11696,1.03255 0.12531,2.24883 0.50221,5.00178 1.07031,7.8179 0.32983,1.63494 0.81801,3.74318 0.82953,3.58232 0.003,-0.0464 -0.10539,-0.86186 -0.24157,-1.81223 -0.27984,-1.95301 -0.47016,-3.75267 -0.59276,-5.60529 -0.092,-1.39054 -0.11462,-5.53303 -0.0319,-5.84201 l 0.0521,-0.19459 0.62791,-0.42371 c 0.34535,-0.23304 0.64812,-0.40349 0.67283,-0.37878 0.0247,0.0247 0.11691,0.83397 0.20488,1.79836 0.29504,3.23425 0.84648,7.1157 1.33886,9.42381 l 0.16183,0.75861 -0.0384,-0.54788 c -0.0211,-0.30134 -0.0943,-1.15478 -0.16262,-1.89653 -0.23868,-2.59014 -0.30451,-3.90017 -0.35577,-7.08035 l -0.0516,-3.20302 0.72186,-0.40038 c 0.39702,-0.2202 0.75422,-0.40037 0.79379,-0.40037 h 0.072 l 0.19316,2.12832 c 0.10625,1.17057 0.28408,2.849 0.39519,3.72983 0.21289,1.68773 0.886937,5.96632 0.932717,5.92054 0.0148,-0.0148 -0.0263,-0.67018 -0.0912,-1.45648 -0.200777,-2.43185 -0.290157,-4.42329 -0.347877,-7.75137 l -0.0556,-3.20302 0.737857,-0.36248 c 0.40582,-0.19936 0.75282,-0.34751 0.77111,-0.32923 0.0183,0.0183 0.16518,1.21008 0.32643,2.64842 0.16124,1.43834 0.36925,3.14165 0.46224,3.78512 0.26904,1.86176 0.69601,4.50719 0.72308,4.48011 0.0136,-0.0136 -0.0276,-0.74503 -0.0917,-1.62533 -0.16236,-2.2307 -0.30942,-6.71105 -0.27745,-8.45313 l 0.0268,-1.45802 0.65937,-0.29892 c 0.36265,-0.1644 0.68169,-0.2766 0.70897,-0.24932 0.0273,0.0273 0.17261,0.98859 0.32297,2.13625 0.45005,3.43516 1.12587,7.89514 1.18708,7.83393 0.0141,-0.0141 -0.0101,-0.55434 -0.0536,-1.20062 -0.10216,-1.51697 -0.23322,-4.67071 -0.30279,-7.28608 l -0.0549,-2.06511 0.70512,-0.28381 c 0.38781,-0.15609 0.7453,-0.29962 0.79442,-0.31894 l 0.0893,-0.0351 0.1474,1.28827 c 0.0811,0.70856 0.35149,2.67274 0.60093,4.36486 l 0.45353,3.07659 -0.0581,-3.16088 c -0.0319,-1.73848 -0.0581,-3.80295 -0.0581,-4.58772 v -1.42686 l 0.79401,-0.32188 c 0.4367,-0.17704 0.80741,-0.30848 0.8238,-0.29209 0.0164,0.0164 0.20264,1.69469 0.41388,3.72956 l 0.38408,3.69975 0.0464,1.99262 0.0464,1.99262 -0.18698,0.62037 c -0.26904,0.89259 -0.61063,1.56772 -1.19673,2.36519 l -0.51415,0.69958 -2.24404,2.2405 c -2.28273,2.27911 -4.41208,4.27544 -7.134677,6.68897 -6.31103,5.5946 -11.22114,12.02458 -11.76639,15.40856 l -0.078,0.48397 0.091,0.56963 c 0.3887,2.4332 2.54331,6.01568 6.11742,10.17147 1.41586,1.64629 1.55905,1.73288 0.49983,0.30228 -3.02213,-4.08179 -5.08506,-7.77785 -5.56885,-9.97746 l -0.14591,-0.66342 0.0437,-0.51664 0.0437,-0.51664 0.18384,-0.48467 c 0.1011,-0.26657 0.20955,-0.48362 0.24099,-0.48233 0.0314,10e-4 0.30371,0.46584 0.60504,1.03234 0.78553,1.47678 1.87964,3.29241 2.90652,4.82324 0.86418,1.28829 3.22271,4.50975 3.30172,4.50975 0.0475,0 0.0455,-0.003 -0.63706,-1.05363 -0.30129,-0.46359 -0.97845,-1.56357 -1.50479,-2.4444 l -0.95698,-1.60151 -1.13074,-2.27583 c -0.6219,-1.25171 -1.31835,-2.73773 -1.54766,-3.30228 l -0.41692,-1.02645 0.41874,-0.68042 c 0.2303,-0.37424 0.44523,-0.67973 0.47762,-0.67888 0.0324,8.4e-4 0.35955,0.54135 0.72703,1.20113 1.21414,2.17987 2.50741,4.28947 3.99082,6.50986 0.80527,1.20534 1.52433,2.24843 1.59792,2.31797 l 0.13379,0.12644 -0.24264,-0.42145 c -1.94158,-3.37249 -3.41331,-6.21593 -4.7921,-9.25849 l -0.71967,-1.5881 0.50748,-0.66666 c 0.27912,-0.36666 0.5352,-0.66665 0.56906,-0.66665 0.0339,0 0.57267,0.89906 1.19735,1.99791 0.62467,1.09885 1.51026,2.60658 1.96798,3.35052 0.97619,1.58663 2.90492,4.51349 2.97428,4.51349 0.0264,0 -0.008,-0.0853 -0.076,-0.18965 -0.70439,-1.07688 -3.07233,-5.75535 -4.43503,-8.76252 l -0.86731,-1.91395 0.0694,-0.11697 c 0.12166,-0.20493 0.91025,-1.14489 0.96469,-1.14987 0.0288,-0.003 0.47978,0.72537 1.00221,1.61779 1.2784,2.1838 2.34755,3.91556 3.60368,5.83708 1.03991,1.59075 1.42378,2.11751 1.01354,1.39078 -1.37709,-2.43946 -4.79382,-9.42785 -4.78306,-9.783 0.004,-0.13531 0.97557,-1.23665 1.03471,-1.17304 0.0207,0.0223 0.5414,0.856 1.15709,1.85273 1.77152,2.86785 3.942507,6.24204 4.148837,6.44818 0.0464,0.0464 -0.12424,-0.31398 -0.37919,-0.80076 -1.321537,-2.52319 -1.748287,-3.36886 -2.879177,-5.70563 -0.67736,-1.39961 -1.23054,-2.59442 -1.2293,-2.65513 0.003,-0.13032 1.05846,-1.30986 1.11733,-1.24829 0.0222,0.0232 0.37315,0.59214 0.77997,1.26435 0.87526,1.44625 3.738947,5.98985 3.851577,6.11102 0.11365,0.12226 -0.17669,-0.50228 -1.72418,-3.70876 -0.760697,-1.57622 -1.547867,-3.23407 -1.749267,-3.68412 l -0.36617,-0.81826 0.57985,-0.61467 c 0.31891,-0.33806 0.60847,-0.61466 0.64345,-0.61466 0.035,0 0.50496,0.75861 1.044397,1.6858 3.07634,5.28758 3.97369,6.96097 4.38442,8.17612 l 0.22792,0.67432 0.003,1.09577 0.003,1.09577 -0.14039,0.56847 c -0.50277,2.03579 -2.52968,7.14972 -5.053007,12.74887 -2.60608,5.78276 -4.27053,11.42259 -4.61486,15.63699 l -0.0848,1.038 0.0863,0.91496 0.0863,0.91495 0.1796,0.48328 c 0.70928,1.90854 3.59831,4.26528 8.173717,6.66775 1.21353,0.6372 3.70293,1.80282 3.74992,1.75583 0.0158,-0.0158 -0.30263,-0.21258 -0.70762,-0.43728 -4.13315,-2.29319 -7.704197,-4.85233 -9.273057,-6.64538 l -0.52915,-0.60478 -0.28513,-0.56521 -0.28512,-0.5652 -0.0599,-0.63972 c -0.033,-0.35184 -0.0401,-0.65961 -0.0157,-0.68392 0.0243,-0.0243 0.58841,0.36939 1.25354,0.87491 2.667107,2.02708 5.496897,3.83415 8.795417,5.61664 0.82759,0.44723 0.65046,0.31095 -1.22221,-0.94033 -2.9328,-1.95964 -5.317787,-3.81768 -7.688297,-5.98958 l -1.075,-0.98493 0.004,-0.25287 c 0.002,-0.13908 0.0489,-0.53091 0.10394,-0.87075 l 0.10007,-0.61787 0.71647,0.54031 c 1.4117,1.06462 3.184887,2.32567 4.593797,3.26701 1.39691,0.93332 4.3466,2.78383 4.70815,2.9537 l 0.18067,0.0849 -0.20881,-0.14994 c -1.22512,-0.87975 -4.74808,-3.57219 -5.6072,-4.28534 -1.415227,-1.17477 -4.172517,-3.58987 -4.171757,-3.65401 8.3e-4,-0.0693 0.33131,-1.45953 0.37732,-1.58717 l 0.0377,-0.10468 1.58334,1.16608 c 2.334787,1.71949 4.161427,2.98442 6.008557,4.16088 0.90401,0.57577 1.70055,1.07833 1.77009,1.1168 l 0.12644,0.0699 -0.0843,-0.0891 c -0.0464,-0.049 -0.69118,-0.55302 -1.43293,-1.12007 -0.74175,-0.56705 -1.93656,-1.51291 -2.65513,-2.10192 -1.33466,-1.094 -4.644917,-3.97485 -4.908377,-4.27166 l -0.14599,-0.16447 0.22099,-0.77416 0.221,-0.77415 0.38859,0.27889 c 3.318257,2.38148 6.600407,4.6073 8.332917,5.65105 0.33558,0.20216 -0.0359,-0.11659 -1.09577,-0.9401 -2.00836,-1.56057 -5.44204,-4.4245 -6.911097,-5.76433 l -0.39971,-0.36455 0.22985,-0.73896 0.22984,-0.73896 0.1043,0.04 c 0.0574,0.022 0.989,0.64411 2.070287,1.38243 2.0071,1.37048 2.73556,1.85119 5.03476,3.32245 1.46805,0.93941 1.47166,0.9228 0.0422,-0.19406 -1.25853,-0.98327 -3.32249,-2.67344 -5.33742,-4.37079 l -1.540697,-1.29786 0.034,-0.0929 c 0.0187,-0.0511 0.13837,-0.40838 0.26591,-0.79395 l 0.23189,-0.70104 0.0966,0.0377 c 0.0531,0.0207 0.684477,0.4461 1.403057,0.94532 2.33528,1.62239 6.16886,4.15364 5.90029,3.89587 -0.0695,-0.0667 -1.09366,-0.93068 -2.27583,-1.91984 -1.18216,-0.98917 -2.73039,-2.30752 -3.4405,-2.92967 l -1.291107,-1.13118 0.056,-0.13883 c 0.0308,-0.0763 0.1709,-0.45102 0.31137,-0.8326 l 0.25539,-0.69377 0.0888,0.0549 c 0.0489,0.0302 1.40007,1.0019 3.0027,2.15935 3.39696,2.45335 4.87691,3.6008 5.7168,4.4324 l 0.60521,0.59924 0.34042,0.61101 c 1.05454,1.89279 1.2751,4.12941 1.43634,14.56555 l 0.08,5.17928 0.1266,1.47507 c 0.51855,6.0414 1.68088,10.77072 3.21386,13.07666 l 0.39331,0.59162 0.42771,0.33809 c 0.45464,0.35937 1.27276,0.79899 2.01018,1.08019 2.38889,0.91094 6.7798,1.53415 10.63304,1.50918 l 1.44729,-0.009 -1.05362,-0.1132 c -3.2714,-0.35148 -5.54516,-0.72297 -7.75468,-1.26695 -2.39734,-0.59023 -3.89299,-1.20929 -4.70248,-1.94638 -0.3425,-0.31187 -0.94494,-1.21964 -0.94494,-1.42386 v -0.10098 l 1.11684,0.28397 c 3.08437,0.78422 7.73236,1.51858 10.59946,1.67465 l 0.80075,0.0436 -1.34864,-0.24196 c -4.35399,-0.78116 -7.75648,-1.63688 -10.76532,-2.70746 l -0.98768,-0.35144 -0.21345,-0.69977 c -0.21055,-0.69028 -0.24944,-0.88612 -0.17598,-0.88612 0.0206,0 0.96062,0.20743 2.08892,0.46096 3.13993,0.70554 5.6363,1.13565 9.84279,1.69583 0.60035,0.0799 0.36289,-0.0183 -0.42145,-0.17434 -1.71205,-0.34064 -4.8716,-1.10543 -6.64028,-1.60731 -1.63248,-0.46325 -5.13487,-1.5409 -5.23423,-1.61053 -0.0544,-0.0381 -0.36359,-1.64251 -0.32418,-1.68193 0.0205,-0.0205 0.8107,0.13745 1.75598,0.35101 2.29664,0.51885 4.27245,0.91571 6.05963,1.21715 1.84231,0.31073 3.81049,0.6012 3.84434,0.56735 0.0141,-0.0141 -0.60281,-0.16943 -1.37088,-0.34521 -2.6556,-0.60777 -5.8502,-1.50605 -9.06984,-2.55031 -0.79932,-0.25925 -1.465,-0.48206 -1.47929,-0.49513 -0.0241,-0.022 -0.26799,-1.44904 -0.26871,-1.57199 -1.8e-4,-0.0302 0.33157,0.018 0.73722,0.10701 2.95468,0.64856 8.08411,1.58845 9.33511,1.71053 l 0.50574,0.0494 -1.89653,-0.49684 c -2.7706,-0.72583 -8.7143,-2.45743 -8.8291,-2.57223 -0.0508,-0.0508 -0.21089,-1.4895 -0.17024,-1.53015 0.0235,-0.0235 1.17614,0.16641 2.56133,0.42211 2.29621,0.42386 6.24091,1.08527 7.07019,1.18545 0.18544,0.0224 -0.38352,-0.15003 -1.26435,-0.38318 -1.34479,-0.35596 -6.86519,-1.91872 -8.1332,-2.30241 l -0.37852,-0.11454 -0.0532,-0.32809 c -0.0292,-0.18044 -0.0735,-0.5666 -0.0984,-0.85813 l -0.0453,-0.53005 0.13981,0.042 c 0.46816,0.14075 8.61613,1.58886 8.66498,1.54001 0.016,-0.016 -1.24684,-0.39952 -2.80636,-0.85222 -2.43307,-0.70628 -6.0218,-1.79918 -6.07187,-1.8491 -0.0481,-0.0479 -0.12564,-1.74011 -0.0798,-1.74011 0.0302,0 1.58127,0.32566 3.44686,0.72368 5.55476,1.18511 7.40832,1.70072 8.37372,2.32937 0.60477,0.39381 1.62756,1.44658 2.12344,2.18569 1.13039,1.68483 3.388,6.15578 5.97357,11.82998 3.30266,7.24789 7.51489,13.38843 10.59913,15.4513 l 0.65236,0.43632 0.60481,0.19017 0.60481,0.19017 1.18006,-0.004 1.18006,-0.004 0.91865,-0.15032 c 1.80633,-0.29557 4.24869,-0.96701 6.3509,-1.74597 1.34369,-0.49789 3.83169,-1.51973 3.79343,-1.558 -0.0143,-0.0144 -0.66976,0.18234 -1.45647,0.43709 -2.90796,0.94161 -6.19176,1.72495 -8.46859,2.02013 l -1.05363,0.13659 -1.18006,-0.0386 -1.18006,-0.0386 -0.43441,-0.13877 -0.43442,-0.13877 -0.51384,-0.37827 c -0.28262,-0.20805 -0.51385,-0.40752 -0.51385,-0.44327 0,-0.0358 0.52154,-0.15164 1.15899,-0.25752 2.79069,-0.46357 6.66006,-1.45996 9.67227,-2.49068 0.74175,-0.25381 1.31826,-0.4644 1.28113,-0.46797 -0.0371,-0.004 -0.58712,0.12351 -1.2222,0.28239 -3.81868,0.95536 -7.25295,1.53707 -10.76376,1.82319 l -1.18006,0.0962 -0.56838,-0.61301 c -0.31261,-0.33715 -0.55352,-0.62786 -0.53537,-0.64601 0.0182,-0.0182 1.14633,-0.25519 2.50705,-0.52674 1.36072,-0.27154 3.16249,-0.66262 4.00392,-0.86906 1.67576,-0.41114 5.60721,-1.5056 5.5639,-1.54891 -0.0149,-0.0149 -0.78264,0.12509 -1.70607,0.31111 -2.20883,0.44496 -3.71545,0.70778 -5.51414,0.96188 -1.43384,0.20256 -5.21606,0.63821 -5.5408,0.63821 h -0.1614 l -0.4868,-0.67993 c -0.26773,-0.37396 -0.46977,-0.69694 -0.44897,-0.71775 0.0208,-0.0208 0.83063,-0.19143 1.7996,-0.37918 3.07056,-0.59493 4.9771,-1.04099 9.24545,-2.1631 0.26818,-0.0705 0.475,-0.14079 0.45959,-0.1562 -0.0154,-0.0154 -0.74689,0.10433 -1.62552,0.26609 -2.67524,0.49254 -7.37795,1.12255 -10.06864,1.34887 l -0.63217,0.0532 -0.37931,-0.61929 c -0.20862,-0.34062 -0.3793,-0.65287 -0.3793,-0.6939 v -0.0746 l 2.65513,-0.57014 c 2.23577,-0.48009 4.55297,-1.03622 7.2308,-1.73541 0.29136,-0.0761 0.51508,-0.15299 0.49715,-0.17092 -0.0179,-0.0179 -0.95803,0.11923 -2.08911,0.30479 -2.85051,0.46765 -8.97025,1.25741 -9.05079,1.16802 -0.16178,-0.17958 -0.77792,-1.30388 -0.73441,-1.34014 0.0321,-0.0267 0.60829,-0.17196 1.2805,-0.32275 1.5756,-0.35344 6.74042,-1.63136 7.67039,-1.89787 0.8835,-0.25319 0.76705,-0.26542 -0.49638,-0.0521 -2.54358,0.42944 -8.99672,1.29721 -9.11287,1.22543 -0.0733,-0.0453 -0.85724,-1.40867 -0.82273,-1.43078 0.0122,-0.008 0.40147,-0.0959 0.86507,-0.19572 1.30002,-0.27999 7.9653,-1.89961 7.93641,-1.9285 -0.0141,-0.0141 -1.31245,0.14236 -2.88525,0.34767 -1.57279,0.20531 -3.5803,0.45201 -4.46113,0.54823 -0.88083,0.0962 -1.69817,0.19091 -1.8163,0.21044 l -0.21479,0.0355 -0.40518,-0.75829 c -0.22284,-0.41705 -0.38338,-0.78007 -0.35675,-0.8067 0.0784,-0.0784 7.671,-1.59885 8.99634,-1.80155 l 1.21419,-0.18571 0.88505,-0.007 0.88504,-0.007 0.59003,0.15189 c 0.32452,0.0835 0.96934,0.33467 1.43293,0.55807 l 0.8429,0.40619 0.92719,0.65748 c 1.73743,1.23204 6.13747,4.86649 9.48262,7.83268 4.10397,3.63906 8.26507,6.54587 12.01132,8.39071 l 1.51721,0.74715 0.89899,0.29859 c 1.13979,0.37856 1.83315,0.53011 2.47431,0.5408 l 0.50743,0.009 z m -19.09337,-12.02213 c -0.50995,-0.44347 -1.93234,-1.64644 -3.16087,-2.67327 -4.68847,-3.91873 -6.27228,-4.97647 -8.23746,-5.50135 l -0.82371,-0.22001 -1.2222,0.0479 -1.22221,0.0479 -1.2222,0.21271 c -1.09036,0.18976 -2.29123,0.42796 -7.23468,1.43505 l -1.37653,0.28043 -0.27675,-0.60081 c -1.32788,-2.8828 -3.30129,-6.87049 -4.22437,-8.53629 -1.22497,-2.21056 -2.1069,-3.33218 -3.34327,-4.25191 l -0.65124,-0.48445 -0.68545,-0.26433 c -1.42703,-0.55033 -3.05272,-0.9563 -8.21116,-2.05054 l -2.86586,-0.60792 -0.0976,-3.70826 c -0.15039,-5.7162 -0.3239,-7.95525 -0.74526,-9.61689 l -0.21163,-0.83458 -0.37844,-0.76274 -0.37845,-0.76274 -0.44988,-0.54375 c -0.80366,-0.97134 -2.57962,-2.37281 -7.2047,-5.68544 -1.16508,-0.83447 -2.11959,-1.56001 -2.12114,-1.61232 -0.002,-0.0523 0.45669,-1.17126 1.0183,-2.48655 2.69642,-6.31509 3.55971,-8.73281 3.78769,-10.60776 l 0.0908,-0.74688 -0.0898,-0.80557 -0.0898,-0.80557 -0.248,-0.67954 c -0.38228,-1.04744 -1.65709,-3.44905 -3.61569,-6.81155 -0.9809,-1.68399 -1.78345,-3.08923 -1.78345,-3.12274 0,-0.0335 0.63533,-0.64316 1.41185,-1.35476 4.29371,-3.93474 6.86082,-6.50914 7.87782,-7.90019 0.48962,-0.66968 0.93059,-1.51191 1.22818,-2.34568 l 0.21059,-0.59003 0.0395,-1.48543 0.0395,-1.48542 -0.0953,-1.16971 c -0.0524,-0.64334 -0.25078,-2.67918 -0.44081,-4.52409 -0.19004,-1.84492 -0.33145,-3.36504 -0.31426,-3.37806 0.0172,-0.013 0.90367,-0.31983 1.96993,-0.68181 8.34008,-2.83127 10.57584,-3.82882 12.15478,-5.42321 l 0.6175,-0.62354 0.327,-0.56058 c 0.67218,-1.15232 1.26859,-2.70983 2.93003,-7.65171 l 1.05905,-3.1501 h 0.19838 c 0.10911,0 1.30898,0.0934 2.66639,0.20763 1.3574,0.1142 3.33845,0.26592 4.40233,0.33716 l 1.93432,0.12953 1.85872,-3.4e-4 1.85872,-3.4e-4 0.75861,-0.12348 c 1.32706,-0.216 2.44238,-0.67258 3.3716,-1.38024 0.84314,-0.64211 2.46204,-2.27082 5.20724,-5.23879 1.43646,-1.55305 2.64202,-2.83547 2.679,-2.84983 0.037,-0.0144 0.36389,0.1415 0.72645,0.34636 1.62678,0.91919 5.46312,2.94894 7.2123,3.81592 2.15812,1.06967 3.35138,1.56071 4.52723,1.863 l 0.80456,0.20683 1.01148,0.0127 1.01148,0.0126 0.81975,-0.23079 c 1.44954,-0.40809 2.8176,-0.95608 8.020321,-3.2126 1.246003,-0.54042 2.294598,-0.97154 2.330212,-0.95805 0.03561,0.0135 0.719797,0.87797 1.520406,1.92105 3.100187,4.03914 4.568246,5.82873 5.935519,7.2355 1.094789,1.12642 1.775904,1.65128 2.7951159,2.15391 0.834131,0.41136 1.463179,0.58552 2.643452,0.7319 l 0.800754,0.0993 4.85929396,0.0398 4.85929404,0.0398 0.184126,0.81343 c 0.448737,1.98242 1.793369,7.33999 2.149807,8.56572 1.075146,3.69724 2.020263,5.26929 3.8983031,6.48419 0.890883,0.57631 3.282109,1.731 6.836104,3.30108 l 3.23166,1.42768 -0.04301,0.25287 c -0.02365,0.13908 -0.274703,1.44768 -0.557888,2.908 -0.938824,4.84132 -1.31556,7.26544 -1.408864,9.06543 l -0.05265,1.01573 0.103841,0.71221 c 0.05711,0.39172 0.213604,1.05358 0.34776,1.47082 l 0.243919,0.75861 0.407403,0.63217 c 0.753377,1.16903 1.794531,2.39749 5.276563,6.22581 1.071062,1.17758 1.977803,2.19312 2.01498,2.25675 l 0.06759,0.11569 -0.917589,1.28509 c -2.675646,3.74724 -4.731089,6.8103 -5.562005,8.28862 -0.641151,1.1407 -0.989223,1.97023 -1.217074,2.90053 l -0.175477,0.71646 -0.0031,0.80076 -0.0031,0.80075 0.150481,0.71647 c 0.239636,1.14095 0.815342,3.07858 1.999723,6.7304 l 1.103019,3.40096 -0.11514,0.10352 c -0.06333,0.0569 -1.101332,0.68538 -2.306678,1.39654 -5.720545,3.37516 -8.325684,5.17169 -9.502869,6.55326 -1.4345761,1.68366 -1.7290311,2.85082 -2.5041681,9.92601 -0.187923,1.7153 -0.363924,3.26097 -0.391113,3.43482 l -0.04944,0.31609 h -0.211376 c -0.116256,0 -1.431006,0.15232 -2.921666,0.3385 -7.966269,0.99497 -10.085937,1.4685 -11.922534,2.66348 -1.457941,0.9486 -2.157513,1.90833 -5.4919019,7.53426 -1.030367,1.73848 -1.889814,3.17741 -1.909882,3.19762 -0.02007,0.0202 -0.367647,-0.061 -0.772399,-0.18048 -0.404752,-0.11947 -1.775611,-0.52567 -3.046354,-0.90266 -4.337706,-1.28689 -6.851826,-1.9189 -8.626286,-2.16852 l -0.94815,-0.13338 -0.75861,0.0531 c -0.41724,0.0292 -1.02413,0.10827 -1.34864,0.17564 l -0.59003,0.1225 -0.93678,0.46329 -0.93678,0.46329 -1.63406,1.0903 c -0.89874,0.59966 -2.75302,1.88932 -4.12062,2.86592 -1.36761,0.97659 -2.52449,1.77494 -2.57085,1.77411 -0.0464,-8.4e-4 -0.50152,-0.36436 -1.01148,-0.80783 z m 3.18775,-3.8947 c 1.02831,-0.7357 2.4955,-1.75011 3.26044,-2.25425 l 1.39078,-0.91662 1.27752,-0.64624 1.27753,-0.64625 0.66114,-0.15448 0.66115,-0.15448 1.39078,0.007 1.39078,0.007 1.01148,0.1456 c 2.14988,0.30947 5.705742,1.13254 9.064787,2.09823 l 1.562979,0.44933 1.007865,-1.72975 c 2.095656,-3.59667 3.467078,-5.64941 4.570763,-6.84149 l 0.535044,-0.5779 0.5800249,-0.3856 c 2.001281,-1.33045 5.454696,-2.24836 12.011442,-3.19262 l 2.528698,-0.36417 0.06055,-0.20246 c 0.0333,-0.11135 0.159863,-1.16968 0.281245,-2.35185 0.436263,-4.24887 0.904179,-6.76636 1.513885,-8.14501 0.992464,-2.24414 4.4239781,-5.04793 11.2303331,-9.17598 0.521544,-0.31632 0.948262,-0.6159 0.948262,-0.66574 0,-0.0498 -0.32497,-1.09142 -0.722155,-2.31464 -0.901786,-2.77723 -1.390361,-4.47414 -1.678146,-5.82851 l -0.223881,-1.05363 -0.04814,-0.88656 -0.04814,-0.88656 0.140859,-0.69518 c 0.460259,-2.27146 1.984603,-5.1795 5.309486,-10.12907 0.886082,-1.31906 1.622469,-2.42483 1.636417,-2.45727 0.01395,-0.0324 -0.61432,-0.75934 -1.39615,-1.61533 -4.037645,-4.42063 -5.343738,-6.22373 -5.783884,-7.98484 -0.07531,-0.30133 -0.181913,-1.07029 -0.236891,-1.70879 l -0.09996,-1.1609 0.101065,-1.60098 c 0.129158,-2.04599 0.342779,-3.72319 0.869178,-6.82418 0.232154,-1.3676 0.443371,-2.62861 0.469371,-2.80225 l 0.04727,-0.31569 -0.453567,-0.20465 c -0.249463,-0.11256 -1.288039,-0.5711 -2.307947,-1.01898 -2.333623,-1.02478 -4.546977,-2.1258 -5.6847261,-2.82784 l -0.880199,-0.54312 -0.604989,-0.59003 -0.60499,-0.59003 -0.440168,-0.67432 c -1.295999,-1.98541 -2.365011,-4.9703 -3.913951,-10.92849 l -0.533496,-2.05216 -3.362084,-0.0549 c -4.674825,-0.0764 -6.380501,-0.23727 -7.850351,-0.74048 l -0.6952199,-0.23801 -0.720799,-0.45262 c -1.968485,-1.23611 -4.379195,-3.72362 -8.045924,-8.30225 l -1.493585,-1.86503 -1.718576,0.75597 c -3.591459,1.57982 -5.922679,2.46219 -7.576729,2.86779 l -0.71646,0.17568 -0.92719,0.003 -0.92719,0.003 -0.75861,-0.14852 c -2.21537,-0.43374 -5.93455,-1.99202 -10.55458,-4.42223 -0.98364,-0.51741 -1.80485,-0.94075 -1.82492,-0.94075 -0.0201,0 -0.81257,0.84396 -1.76112,1.87546 -3.1097,3.38162 -5.1462,5.24334 -6.42141,5.87026 -0.69995,0.34411 -1.7929,0.64822 -2.97471,0.8277 l -0.99164,0.15059 -3.66661,-0.002 -3.66661,-0.002 -2.05207,-0.15116 c -1.12863,-0.0831 -2.06155,-0.13896 -2.07314,-0.12406 -0.0116,0.0149 -0.44035,1.27879 -0.95278,2.80865 -1.03642,3.09427 -1.58239,4.51696 -2.22465,5.79705 -0.59197,1.17987 -0.96619,1.70613 -1.68934,2.37571 -0.90392,0.83698 -1.91563,1.472 -3.90438,2.45071 l -1.77009,0.87109 -1.81224,0.71705 c -1.90395,0.75335 -5.50499,2.07554 -5.6528,2.07554 h -0.0865 l 0.046,0.27394 c 0.0688,0.41009 0.3625,3.27579 0.50745,4.95203 l 0.12756,1.47508 4.8e-4,1.61154 4.8e-4,1.61154 -0.12368,0.70923 -0.12368,0.70923 -0.253,0.61353 c -0.84129,2.04015 -2.33233,3.87658 -6.59043,8.11707 l -2.93232,2.92018 1.27665,2.17936 c 0.70216,1.19864 1.67944,2.97589 2.17173,3.94944 l 0.89507,1.77009 0.269,0.81579 c 0.14794,0.44868 0.31043,1.11247 0.36109,1.47507 l 0.0921,0.65929 -0.0552,0.71646 c -0.20114,2.61069 -1.27182,6.07297 -3.70081,11.96748 l -0.4682,1.13622 0.1024,0.0588 c 0.26576,0.15258 4.33534,3.12581 5.12297,3.74284 1.28649,1.00783 2.46391,2.07659 2.98892,2.71307 1.36781,1.65827 2.04496,4.18128 2.43841,9.08531 0.14898,1.85693 0.29908,4.80402 0.29908,5.87236 0,0.40778 0.0201,0.74142 0.0447,0.74142 0.0246,0 1.20989,0.24814 2.63406,0.55142 6.46674,1.37712 8.22549,2.06762 9.83418,3.86099 1.60245,1.78641 3.0063,4.06539 5.38186,8.73682 0.74262,1.46032 1.36189,2.66968 1.37614,2.68747 0.0143,0.0178 1.36423,-0.23723 2.99993,-0.56671 1.6357,-0.32948 3.524,-0.68166 4.19621,-0.78264 l 1.2222,-0.18359 1.43293,-0.008 1.43293,-0.008 0.52639,0.14566 c 2.54435,0.70403 5.93115,2.93693 11.43764,7.54077 0.46076,0.38523 0.85216,0.70042 0.86977,0.70042 0.0176,0 0.87336,-0.60193 1.90167,-1.33763 z m 3.10084,-18.39479 c -0.2964,-0.0451 -0.75985,-0.15649 -1.02989,-0.24747 l -0.491,-0.1654 h -1.29881 -1.29881 l -0.61416,0.1387 -0.61416,0.13869 -0.80804,-0.13457 c -0.44442,-0.074 -0.97479,-0.15966 -1.17861,-0.19033 l -0.37058,-0.0558 -0.43959,0.14942 -0.43959,0.14942 -0.15917,-0.0689 c -0.0875,-0.0379 -0.37625,-0.0595 -0.64157,-0.048 l -0.4824,0.0209 -0.52908,-0.16996 c -0.29099,-0.0935 -0.87045,-0.21374 -1.28768,-0.26724 -0.41724,-0.0535 -1.02412,-0.13267 -1.34864,-0.17591 l -0.59003,-0.0786 -0.46079,-0.23201 -0.46079,-0.23201 -0.25567,-0.41435 -0.25568,-0.41434 0.006,-0.63799 0.006,-0.63799 0.17268,-0.38519 c 0.095,-0.21186 0.3181,-0.52642 0.49583,-0.69903 l 0.32314,-0.31384 0.59443,-0.28376 c 0.32694,-0.15607 0.96454,-0.423 1.4169,-0.59319 0.45236,-0.17018 1.00127,-0.42963 1.2198,-0.57657 l 0.39732,-0.26715 0.59442,-0.69155 c 0.73133,-0.85084 1.32794,-1.82366 1.62323,-2.64681 l 0.22358,-0.62326 0.004,-0.92719 0.004,-0.92719 -0.15991,-0.48739 -0.1599,-0.48738 0.0968,-0.69268 c 0.13275,-0.94996 0.12018,-2.81006 -0.0326,-4.82288 l -0.12794,-1.6858 0.0419,-1.89652 0.0419,-1.89652 0.17597,-0.88505 c 0.0968,-0.48677 0.17797,-1.11983 0.18041,-1.40679 l 0.004,-0.52175 -0.14411,-0.45814 -0.1441,-0.45814 0.0911,-0.57947 c 0.0501,-0.31872 0.1369,-1.25415 0.19294,-2.07875 l 0.1019,-1.49927 -0.10188,-3.05238 c -0.056,-1.67882 -0.10123,-3.97106 -0.10043,-5.09387 l 10e-4,-2.04148 -0.14552,-0.90867 -0.14551,-0.90867 10e-4,-2.48655 0.001,-2.48655 0.16111,-2.02296 0.16111,-2.02296 0.004,-2.44441 0.004,-2.44441 -0.18966,-0.35487 -0.18965,-0.35488 0.002,-0.61446 0.002,-0.61446 0.16425,-0.71646 c 0.0903,-0.39406 0.16523,-0.9076 0.16642,-1.14122 l 0.002,-0.42475 -0.4258,-1.30319 c -0.23418,-0.71676 -0.59172,-1.64457 -0.79452,-2.0618 l -0.36873,-0.75861 -0.40987,-0.50574 -0.40986,-0.50574 -1.33682,-0.26731 -1.33681,-0.2673 -0.5986,-0.29865 c -0.32922,-0.16426 -0.73434,-0.42488 -0.90026,-0.57916 l -0.30167,-0.28051 -0.15328,-0.73044 -0.15329,-0.73045 0.0469,-0.62001 0.0469,-0.62001 0.13154,-0.31482 0.13154,-0.31482 0.53427,-0.24225 c 0.29385,-0.13324 0.77863,-0.31104 1.07728,-0.39511 l 0.54301,-0.15287 1.64365,0.004 1.64366,0.004 1.6858,0.26675 c 3.02921,0.47931 2.9597,0.47608 10.07264,0.46869 l 3.07659,-0.003 2.99229,-0.26726 c 1.64576,-0.14699 3.91485,-0.31189 5.042429,-0.36645 l 2.050136,-0.0992 1.742912,0.10501 c 0.958601,0.0577 2.191857,0.17114 2.74057,0.25198 l 0.997659,0.14699 0.477415,-0.0598 c 0.262578,-0.0329 1.236024,-0.063 2.163214,-0.0669 0.927189,-0.004 2.103034,-0.0463 2.6129879,-0.0942 l 0.927189,-0.087 0.835227,-0.21932 0.835226,-0.21933 0.386978,0.0959 c 0.212838,0.0527 0.590031,0.15156 0.838206,0.2196 l 0.451229,0.1237 0.278056,-0.11617 c 0.15293,-0.0639 0.362301,-0.23013 0.465268,-0.3694 l 0.187212,-0.25322 0.347852,0.12347 c 0.191319,0.0679 0.840949,0.19844 1.443622,0.29006 1.296173,0.19704 1.766204,0.33849 2.22196196,0.66864 l 0.33761,0.24456 0.216361,0.36919 0.21636,0.36919 v 0.40427 c 0,0.22234 -0.04593,0.56039 -0.102066,0.7512 l -0.102067,0.34694 -0.469495,0.4636 -0.46949396,0.46359 -0.756006,0.45698 c -0.415802,0.25134 -1.023122,0.65708 -1.349599,0.90164 l -0.593595,0.44465 -0.256976,0.36271 -0.256976,0.36272 -0.141912,2.36012 c -0.07805,1.29806 -0.140977,2.86731 -0.139836,3.48721 l 0.0021,1.1271 0.132035,0.88921 c 0.162917,1.09719 0.425576,1.94197 0.826957,2.6597 0.351618,0.62876 1.05765,1.43679 1.418424,1.62336 0.135077,0.0698 0.831357,0.27384 1.54728896,0.45332 2.33265504,0.58477 2.98707004,1.05467 2.98707004,2.14485 v 0.37885 l -0.173343,0.4633 c -0.09534,0.25482 -0.237578,0.54222 -0.316087,0.63868 l -0.142745,0.17539 -0.75860904,0.12292 c -1.392187,0.22559 -3.68950696,0.45431 -5.56313596,0.55386 l -1.854379,0.0985 -3.498033,-0.0493 c -1.9239179,-0.0271 -4.7033579,-0.11262 -6.1765339,-0.19 l -2.678502,-0.1407 -0.54473,-0.34852 c -0.299601,-0.19168 -0.712962,-0.45394 -0.91858,-0.5828 l -0.373851,-0.23429 -0.174893,-0.36128 -0.174893,-0.36128 v -0.30298 -0.30298 l 0.342177,-0.43288 c 0.580321,-0.73417 1.787317,-1.5043 3.298263,-2.10448 l 0.479566,-0.19049 0.04629,-0.43481 c 0.02546,-0.23914 0.109552,-1.71307 0.186877,-3.2754 l 0.140589,-2.8406 -0.243769,-0.32027 c -0.753557,-0.99005 -1.129578,-1.25265 -2.269176,-1.58473 -1.638015,-0.4773 -3.142885,-0.55388 -6.447239,-0.32805 l -1.98176,0.13543 -1.77008,-0.0406 -1.77009,-0.0406 -0.27599,0.16618 c -0.30535,0.18386 -0.42939,0.38889 -0.65164,1.07709 -0.0823,0.25498 -0.21708,0.55984 -0.29941,0.67746 l -0.14969,0.21387 0.1729,0.5026 0.1729,0.50259 0.0647,1.64366 0.0647,1.64365 0.14305,0.4636 c 0.0787,0.25497 0.27759,0.77467 0.44203,1.15487 l 0.29898,0.69129 -0.26105,0.29732 -0.26105,0.29732 -0.0571,0.30432 c -0.069,0.36769 -0.0122,1.12543 0.1733,2.31227 l 0.13832,0.88505 -0.0567,0.41252 c -0.0312,0.22689 -0.14407,0.58723 -0.25084,0.80076 -0.28914,0.57825 -0.45208,1.30882 -0.54064,2.4239 l -0.0793,0.99876 0.0273,2.97799 0.0273,2.97798 0.28392,0.29578 c 0.32651,0.34013 0.91732,0.66372 1.41673,0.77593 l 0.34512,0.0776 0.4411,-0.17186 0.4411,-0.17186 0.89826,-0.0407 0.89826,-0.0407 1.37757,0.14667 1.37756,0.14667 0.54789,-0.0512 c 0.843676,-0.0789 1.746206,-0.29043 2.182379,-0.51146 l 0.39523,-0.20028 0.34886,-0.37847 c 0.561211,-0.60884 0.79399,-1.14667 1.374938,-3.17679 0.192363,-0.67221 0.473761,-1.48772 0.625328,-1.81224 l 0.275576,-0.59003 0.568597,-0.66073 0.568597,-0.66074 0.386926,-0.24538 0.386926,-0.24538 h 0.463395 0.463394 l 0.435966,0.45011 0.435965,0.45011 0.274985,0.70888 c 0.151242,0.38988 0.369443,1.16404 0.484891,1.72035 l 0.209906,1.01148 0.0111,1.13792 0.0111,1.13791 -0.199385,1.64366 -0.199385,1.64365 0.04539,1.85438 0.04539,1.85438 0.174164,1.13791 c 0.09579,0.62585 0.251091,1.51821 0.345113,1.98302 l 0.170949,0.8451 -0.170077,0.35202 c -0.09354,0.19361 -0.213332,0.55295 -0.2662,0.79855 l -0.09612,0.44653 0.07409,1.39078 c 0.04075,0.76493 0.06958,1.6803 0.06407,2.03415 l -0.01002,0.64336 -0.146109,0.43989 -0.146109,0.43989 -0.36662,0.38263 -0.366621,0.38263 -0.403446,-0.0536 -0.403445,-0.0536 -0.629331,-0.30901 -0.629331,-0.30901 -0.723507,-0.72393 c -0.397929,-0.39815 -1.090351,-1.19805 -1.538717,-1.77754 l -0.81521,-1.05363 -0.0024,-0.38267 c -0.0052,-0.82069 -0.362669,-1.74623 -1.012404,-2.62116 l -0.35284,-0.47513 -0.435429,-0.24109 -0.435429,-0.2411 -1.137911,-0.0277 -1.13792,-0.0277 -1.34864,0.31462 -1.34864,0.31461 -0.96933,10e-4 -0.96933,0.001 -0.36049,-0.138 -0.36049,-0.138 -0.22954,0.087 c -0.5075,0.19226 -0.80231,0.6301 -1.11299,1.65295 l -0.18402,0.60584 0.091,0.74178 c 0.12733,1.03822 0.11323,2.95302 -0.0375,5.09665 l -0.12843,1.82617 0.021,1.3347 c 0.0115,0.73408 -0.0106,1.84676 -0.0493,2.47261 l -0.0703,1.13792 0.17929,1.61025 c 0.0986,0.88563 0.20027,2.02355 0.22592,2.52869 l 0.0466,0.91845 -0.0719,0.63218 -0.0719,0.63217 0.19514,0.30307 0.19515,0.30308 0.0865,0.53982 c 0.10764,0.67201 0.2256,0.85504 0.77685,1.20538 0.65503,0.41629 1.41986,0.69212 3.07484,1.10892 1.91939,0.48338 2.66206,0.73301 3.27419,1.10053 0.63392,0.38059 0.8871,0.62519 1.153161,1.11403 l 0.214679,0.39443 0.0942,0.5477 0.0942,0.54769 -0.08451,0.58854 -0.08451,0.58854 -0.151091,0.11208 c -0.0831,0.0616 -0.2554,0.13344 -0.382889,0.15954 -0.127484,0.0261 -0.231794,0.0767 -0.231794,0.11241 0,0.0357 -0.19031,0.18709 -0.42291,0.33635 l -0.42291,0.27138 -1.62112,-0.0304 -1.62113,-0.0304 -0.50574,0.15406 -0.50573,0.15407 -1.98082,0.0707 -1.98081,0.0707 -0.7945,0.12903 c -0.43697,0.071 -1.13868,0.14737 -1.55936,0.16978 l -0.76487,0.0407 z m -30.73267,-5.87593 c -0.32976,-0.20377 -0.752,-0.68886 -0.98794,-1.13497 l -0.18821,-0.35589 -2.8e-4,-0.63217 -2.8e-4,-0.63218 0.14216,-0.26266 0.14217,-0.26266 -0.52314,0.21727 -0.52315,0.21727 -1.07106,0.0327 -1.07106,0.0327 -0.69903,-0.14096 c -0.79136,-0.15959 -1.28001,-0.3539 -1.70486,-0.67795 l -0.29217,-0.22285 -0.17283,-0.357 c -0.0951,-0.19636 -0.17282,-0.45882 -0.17282,-0.58327 v -0.22625 h -0.28237 -0.28237 l -0.32873,-0.2412 c -0.49879,-0.36597 -1.42033,-1.36017 -1.61249,-1.73962 -0.0939,-0.18543 -0.19649,-0.4565 -0.22796,-0.60237 l -0.0572,-0.26521 0.12692,-0.30374 c 0.0698,-0.16706 0.17091,-0.30375 0.22468,-0.30375 0.0538,0 0.57704,0.23706 1.16281,0.52681 l 1.06504,0.52681 1.01196,-0.007 1.01195,-0.007 0.71647,-0.2347 c 1.09853,-0.35986 2.36105,-1.02288 7.03696,-3.69555 3.81137,-2.1785 5.9872,-3.04106 8.24417,-3.26821 l 0.87171,-0.0877 0.8672,0.089 c 1.50079,0.154 2.5028,0.51415 3.21122,1.15416 l 0.33385,0.30162 0.24944,0.51774 0.24944,0.51774 0.0545,0.47197 0.0545,0.47197 -0.138,0.53951 -0.138,0.53951 -0.22836,0.33088 c -0.1256,0.18199 -0.39234,0.43507 -0.59276,0.56241 l -0.36441,0.23152 -0.5942,0.10619 -0.59421,0.10619 -0.54776,-0.0938 -0.54776,-0.0938 -0.38755,-0.2396 -0.38754,-0.23961 -0.25548,-0.36349 -0.25548,-0.3635 v -0.4923 -0.4923 l 0.17651,-0.23798 c 0.0971,-0.13089 0.32466,-0.32491 0.50574,-0.43116 l 0.32923,-0.19318 0.39683,0.033 0.39682,0.033 0.29935,0.22833 c 0.3108,0.23706 0.53651,0.61037 0.71821,1.18789 0.12721,0.40433 0.39294,0.71646 0.60993,0.71646 0.26153,0 0.61622,-0.22618 0.72333,-0.46124 0.0554,-0.12155 0.10032,-0.41836 0.0999,-0.65957 l -8.2e-4,-0.43855 -0.19775,-0.42466 -0.19775,-0.42466 -0.40013,-0.35221 -0.40013,-0.35221 -0.476,-0.19247 -0.47599,-0.19246 -1.30649,8.4e-4 -1.3065,8.4e-4 -0.63217,0.19655 c -0.3477,0.10811 -0.88737,0.33009 -1.19927,0.49329 l -0.56709,0.29673 -0.54301,0.49757 -0.54301,0.49757 -0.35132,0.55629 c -0.19323,0.30596 -0.44281,0.79934 -0.55463,1.0964 l -0.2033,0.54012 v 0.42786 0.42786 l 0.14111,0.29737 0.14112,0.29738 0.34355,0.15603 0.34356,0.15604 0.35823,0.002 0.35823,0.002 v 0.19116 c 0,0.10513 -0.0925,0.3273 -0.20558,0.49369 l -0.20558,0.30253 -0.32123,0.15824 -0.32123,0.15824 -0.50574,0.001 c -0.27816,7.3e-4 -0.62475,-0.0292 -0.7702,-0.0665 l -0.26446,-0.0678 -0.0349,0.91074 -0.0349,0.91073 -0.22016,0.42529 c -0.45793,0.88458 -1.27816,1.47881 -2.54997,1.84736 -0.41519,0.12032 -0.91073,0.31009 -1.10122,0.42172 l -0.34633,0.20297 -0.23461,0.33854 -0.23461,0.33854 -0.0545,0.44647 -0.0545,0.44647 -0.21072,0.0228 -0.21073,0.0228 z m -8.85044,-16.74752 -0.33716,-0.11922 -0.26779,-0.29057 -0.26778,-0.29058 -0.09,-0.32404 c -0.0495,-0.17823 -0.0902,-0.48254 -0.0905,-0.67626 l -4.7e-4,-0.35221 0.13523,-0.13523 c 0.25439,-0.25439 0.77658,-0.46236 1.79054,-0.71313 0.5578,-0.13795 1.16342,-0.32696 1.34584,-0.42002 0.39603,-0.20204 0.77161,-0.62432 0.78129,-0.87845 0.0392,-1.02768 0.0695,-1.34083 0.16717,-1.72487 l 0.1134,-0.44592 -0.14491,-0.27054 -0.14492,-0.27055 0.0851,-3.41375 c 0.1516,-6.07782 0.22627,-11.34441 0.21092,-14.87717 l -0.015,-3.45589 -0.10296,-0.75861 c -0.0566,-0.41724 -0.11796,-1.22462 -0.13629,-1.79419 -0.0183,-0.56957 -0.0566,-1.07317 -0.0849,-1.11911 -0.0284,-0.0459 -0.34271,-0.22912 -0.69849,-0.40707 l -0.64687,-0.32355 -0.37931,-0.056 c -0.20862,-0.0308 -0.52926,-0.14045 -0.71254,-0.24363 l -0.33324,-0.1876 -0.27787,-0.36431 -0.27786,-0.3643 v -0.25465 c 0,-0.35684 0.2144,-0.76885 0.58956,-1.13295 l 0.32028,-0.31084 4.38688,0.005 c 2.41278,0.003 4.4215,0.0263 4.46382,0.0524 0.0423,0.0262 0.4902,-0.007 0.99529,-0.0747 l 0.91833,-0.12221 1.13791,2.4e-4 c 0.62586,1.3e-4 1.82067,0.0468 2.65514,0.10371 1.58561,0.10815 3.26477,0.12175 4.55165,0.0369 0.41724,-0.0275 1.34405,-0.0719 2.0596,-0.0986 0.71554,-0.0267 1.32093,-0.0685 1.34531,-0.0929 0.0697,-0.0697 2.28895,0.054 2.66397,0.14848 l 0.33716,0.085 0.31609,0.33195 0.31608,0.33196 v 0.18842 c 0,0.36696 -0.62966,1.09149 -1.37139,1.57801 l -0.48635,0.319 -0.42998,0.1102 -0.42998,0.1102 -0.11026,0.1711 -0.11026,0.1711 2.2e-4,0.92719 c 1.2e-4,0.50995 0.017,1.91338 0.0375,3.11873 l 0.0373,2.19154 -0.11726,1.2222 -0.11725,1.2222 0.0738,0.0281 c 0.0957,0.0365 0.0931,0.52723 -0.004,0.68003 l -0.0748,0.11809 0.11754,0.33315 c 0.0647,0.18323 0.15792,0.68008 0.20728,1.10411 0.0494,0.42403 0.12878,0.8952 0.17649,1.04705 0.12302,0.39153 0.47256,0.77595 0.86952,0.95626 l 0.34065,0.15473 0.55649,0.002 0.55649,0.002 0.27785,0.18965 c 0.15281,0.10431 0.34807,0.32182 0.43391,0.48335 l 0.15607,0.2937 v 0.50892 0.50893 l -0.2614,0.31712 -0.26139,0.31712 -0.434,0.22712 -0.43399,0.22713 -2.44441,-0.0292 c -1.34442,-0.0161 -3.81153,-0.0342 -5.48245,-0.0404 l -3.03805,-0.0112 -0.23983,0.15708 -0.23983,0.15708 -0.48043,-0.0544 c -0.65811,-0.0745 -3.0916,-0.0764 -3.58194,-0.003 l -0.39974,0.06 -0.15772,0.34731 -0.15771,0.34731 -0.002,0.39296 c -0.001,0.21613 0.055,0.69026 0.12457,1.05363 0.16218,0.84756 0.15969,1.35288 -0.01,1.99713 l -0.13629,0.51791 0.10358,1.18006 0.10357,1.18006 -0.0908,1.65714 -0.0908,1.65714 0.0842,0.74086 0.0842,0.74086 0.22492,0.50119 0.22493,0.5012 0.34121,0.14833 0.34122,0.14832 1.34864,0.0941 c 0.74175,0.0517 1.61415,0.13526 1.93867,0.1856 l 0.59003,0.0915 0.18836,0.17303 0.18836,0.17303 0.05,0.26625 0.0499,0.26625 -0.11188,0.45743 -0.11187,0.45743 -0.31114,0.14622 c -0.55966,0.26301 -1.48586,0.47505 -2.53536,0.58043 l -1.03084,0.10351 -2.41909,-0.10819 -2.41908,-0.10819 -0.39006,0.18882 -0.39006,0.18883 -0.62567,-0.0528 c -0.34412,-0.029 -0.90086,-0.0762 -1.2372,-0.10472 l -0.61152,-0.0519 -0.32596,0.13619 -0.32596,0.1362 -1.0644,-0.004 -1.0644,-0.004 z m 13.31781,-20.73224 0.75861,-0.11171 0.50574,0.0625 0.50574,0.0625 0.62141,-0.0684 0.62142,-0.0684 0.20417,-0.13378 c 0.1123,-0.0736 0.24203,-0.23333 0.28829,-0.35501 l 0.0841,-0.22123 -0.0569,-0.89974 -0.0569,-0.89974 0.0789,-0.14104 0.0789,-0.14104 -0.0769,-0.5681 -0.0769,-0.56809 0.0762,-2.23248 0.0762,-2.23247 -0.11335,-0.28131 -0.11336,-0.28131 0.08,-0.098 0.08,-0.098 -0.10978,-0.57999 -0.10979,-0.58 -0.11355,-0.072 c -0.0625,-0.0396 -0.3269,-0.0725 -0.58766,-0.0733 -0.26075,-7.1e-4 -0.93967,-0.0804 -1.5087,-0.17701 l -1.0346,-0.17572 -0.31591,0.14245 -0.3159,0.14245 -0.32479,-0.0543 -0.32478,-0.0543 -0.6297,0.0899 -0.62969,0.0899 -0.43986,0.20138 -0.43987,0.20137 -0.0862,0.32311 c -0.0474,0.1777 -0.13027,0.60758 -0.18417,0.95527 l -0.098,0.63218 0.0466,0.75861 0.0466,0.75861 0.14938,0.39695 0.14937,0.39696 -0.15364,2.0896 -0.15365,2.08959 0.0314,0.82871 0.0314,0.82871 0.15692,0.11466 0.15691,0.11465 0.41796,-0.003 c 0.22987,-0.002 0.44373,0.0226 0.47525,0.0542 0.0717,0.0719 1.32921,-0.0169 2.33314,-0.16473 z m 43.546506,67.82943 0.115683,-0.14751 -0.147508,0.11568 c -0.140405,0.11012 -0.185056,0.17933 -0.115683,0.17933 0.0175,0 0.08388,-0.0664 0.147508,-0.1475 z m -3.118728,-1.01148 0.115683,-0.14751 -0.147508,0.11568 c -0.140405,0.11012 -0.185056,0.17933 -0.115683,0.17933 0.0175,0 0.08388,-0.0664 0.147508,-0.1475 z m -29.619348,-1.7578 c -0.028,-0.028 -0.10071,-0.031 -0.16156,-0.007 l -0.11063,0.0443 0.16156,0.007 c 0.0889,0.004 0.13864,-0.0163 0.11063,-0.0443 z m -19.84692,-2.44877 c -0.0571,-0.0231 -0.17086,-0.0245 -0.25287,-0.003 l -0.14912,0.0389 0.25287,0.003 c 0.13908,0.002 0.20618,-0.0158 0.14912,-0.0389 z m -4.26001,-8.76179 c -0.028,-0.028 -0.10071,-0.031 -0.16155,-0.007 l -0.11063,0.0443 0.16155,0.007 c 0.0889,0.004 0.13864,-0.0163 0.11063,-0.0443 z m 99.20363,-21.12692 -0.04252,-0.10537 v 0.21073 0.21072 l 0.04252,-0.10536 c 0.02338,-0.058 0.02338,-0.15278 0,-0.21072 z m 5.229768,-3.5392 -0.03666,-0.19063 -0.0017,0.33716 c -9.35e-4,0.18543 0.01556,0.27122 0.03666,0.19063 0.0211,-0.0806 0.02186,-0.23231 0.0017,-0.33716 z m -133.095862,-39.61199 -0.0443,-0.11063 -0.007,0.16156 c -0.004,0.0889 0.0163,0.13863 0.0443,0.11063 0.028,-0.028 0.031,-0.10071 0.007,-0.16156 z m 2.18978,-2.36539 -0.0425,-0.10536 v 0.21073 0.21072 l 0.0425,-0.10536 c 0.0234,-0.0579 0.0234,-0.15278 0,-0.21073 z m 9.948804,-8.30095 -0.0388,-0.14911 -0.003,0.25287 c -0.002,0.13908 0.0158,0.20618 0.0389,0.14911 0.0231,-0.0571 0.0245,-0.17086 0.003,-0.25287 z m 33.92119,-32.62181 0.11568,-0.14751 -0.1475,0.11568 c -0.14041,0.11012 -0.18506,0.17933 -0.11569,0.17933 0.0175,0 0.0839,-0.0664 0.14751,-0.1475 z m 40.425595,-9.42818 c -0.02801,-0.028 -0.100709,-0.031 -0.161556,-0.007 l -0.110631,0.0443 0.161556,0.007 c 0.08886,0.004 0.13864,-0.0163 0.110631,-0.0443 z"
       id="path1" /></g></svg>
